%TF.GenerationSoftware,KiCad,Pcbnew,(6.0.1)*%
%TF.CreationDate,2022-11-02T05:16:37+00:00*%
%TF.ProjectId,Peak-And-Hold,5065616b-2d41-46e6-942d-486f6c642e6b,rev?*%
%TF.SameCoordinates,Original*%
%TF.FileFunction,Soldermask,Bot*%
%TF.FilePolarity,Negative*%
%FSLAX46Y46*%
G04 Gerber Fmt 4.6, Leading zero omitted, Abs format (unit mm)*
G04 Created by KiCad (PCBNEW (6.0.1)) date 2022-11-02 05:16:37*
%MOMM*%
%LPD*%
G01*
G04 APERTURE LIST*
G04 Aperture macros list*
%AMRoundRect*
0 Rectangle with rounded corners*
0 $1 Rounding radius*
0 $2 $3 $4 $5 $6 $7 $8 $9 X,Y pos of 4 corners*
0 Add a 4 corners polygon primitive as box body*
4,1,4,$2,$3,$4,$5,$6,$7,$8,$9,$2,$3,0*
0 Add four circle primitives for the rounded corners*
1,1,$1+$1,$2,$3*
1,1,$1+$1,$4,$5*
1,1,$1+$1,$6,$7*
1,1,$1+$1,$8,$9*
0 Add four rect primitives between the rounded corners*
20,1,$1+$1,$2,$3,$4,$5,0*
20,1,$1+$1,$4,$5,$6,$7,0*
20,1,$1+$1,$6,$7,$8,$9,0*
20,1,$1+$1,$8,$9,$2,$3,0*%
G04 Aperture macros list end*
%ADD10R,1.600000X1.600000*%
%ADD11O,1.600000X1.600000*%
%ADD12R,1.905000X2.000000*%
%ADD13O,1.905000X2.000000*%
%ADD14C,2.400000*%
%ADD15O,2.400000X2.400000*%
%ADD16C,3.000000*%
%ADD17RoundRect,0.250001X-1.099999X-1.599999X1.099999X-1.599999X1.099999X1.599999X-1.099999X1.599999X0*%
%ADD18O,2.700000X3.700000*%
G04 APERTURE END LIST*
D10*
%TO.C,U1*%
X62269401Y-83607355D03*
D11*
X62269401Y-86147355D03*
X62269401Y-88687355D03*
X62269401Y-91227355D03*
X69889401Y-91227355D03*
X69889401Y-88687355D03*
X69889401Y-86147355D03*
X69889401Y-83607355D03*
%TD*%
D12*
%TO.C,Q1*%
X56616654Y-65906190D03*
D13*
X59156654Y-65906190D03*
X61696654Y-65906190D03*
%TD*%
D10*
%TO.C,U2*%
X82372280Y-83557863D03*
D11*
X82372280Y-86097863D03*
X82372280Y-88637863D03*
X82372280Y-91177863D03*
X89992280Y-91177863D03*
X89992280Y-88637863D03*
X89992280Y-86097863D03*
X89992280Y-83557863D03*
%TD*%
D10*
%TO.C,U4*%
X129008548Y-83571767D03*
D11*
X129008548Y-86111767D03*
X129008548Y-88651767D03*
X129008548Y-91191767D03*
X136628548Y-91191767D03*
X136628548Y-88651767D03*
X136628548Y-86111767D03*
X136628548Y-83571767D03*
%TD*%
D14*
%TO.C,R4*%
X124557963Y-95466909D03*
D15*
X139797963Y-95466909D03*
%TD*%
D12*
%TO.C,Q5*%
X97417963Y-65555490D03*
D13*
X99957963Y-65555490D03*
X102497963Y-65555490D03*
%TD*%
D16*
%TO.C,J1*%
X67933527Y-65415678D03*
X80533527Y-65415678D03*
D17*
X67933527Y-72715678D03*
D18*
X72133527Y-72715678D03*
X76333527Y-72715678D03*
X80533527Y-72715678D03*
X67933527Y-78215678D03*
X72133527Y-78215678D03*
X76333527Y-78215678D03*
X80533527Y-78215678D03*
%TD*%
D14*
%TO.C,R2*%
X78578415Y-95229268D03*
D15*
X93818415Y-95229268D03*
%TD*%
D14*
%TO.C,R1*%
X58377270Y-95267591D03*
D15*
X73617270Y-95267591D03*
%TD*%
D16*
%TO.C,J2*%
X119502787Y-65901648D03*
X132102787Y-65901648D03*
D17*
X119502787Y-73201648D03*
D18*
X123702787Y-73201648D03*
X127902787Y-73201648D03*
X132102787Y-73201648D03*
X119502787Y-78701648D03*
X123702787Y-78701648D03*
X127902787Y-78701648D03*
X132102787Y-78701648D03*
%TD*%
D10*
%TO.C,U3*%
X106716249Y-83755460D03*
D11*
X106716249Y-86295460D03*
X106716249Y-88835460D03*
X106716249Y-91375460D03*
X114336249Y-91375460D03*
X114336249Y-88835460D03*
X114336249Y-86295460D03*
X114336249Y-83755460D03*
%TD*%
D12*
%TO.C,Q4*%
X138279781Y-65601430D03*
D13*
X140819781Y-65601430D03*
X143359781Y-65601430D03*
%TD*%
D12*
%TO.C,Q3*%
X108211612Y-65595248D03*
D13*
X110751612Y-65595248D03*
X113291612Y-65595248D03*
%TD*%
D14*
%TO.C,R3*%
X102955421Y-95502172D03*
D15*
X118195421Y-95502172D03*
%TD*%
D12*
%TO.C,Q2*%
X86653139Y-65544363D03*
D13*
X89193139Y-65544363D03*
X91733139Y-65544363D03*
%TD*%
M02*
