M48
; DRILL file {KiCad (6.0.1)} date Wed Nov  2 05:16:34 2022
; FORMAT={-:-/ absolute / inch / decimal}
; #@! TF.CreationDate,2022-11-02T05:16:34+00:00
; #@! TF.GenerationSoftware,Kicad,Pcbnew,(6.0.1)
; #@! TF.FileFunction,MixedPlating,1,2
FMAT,2
INCH
; #@! TA.AperFunction,Plated,PTH,ViaDrill
T1C0.0157
; #@! TA.AperFunction,Plated,PTH,ComponentDrill
T2C0.0315
; #@! TA.AperFunction,Plated,PTH,ComponentDrill
T3C0.0433
; #@! TA.AperFunction,Plated,PTH,ComponentDrill
T4C0.0472
; #@! TA.AperFunction,Plated,PTH,ComponentDrill
T5C0.0709
; #@! TA.AperFunction,NonPlated,NPTH,ComponentDrill
T6C0.1181
%
G90
G05
T1
X2.1027Y-3.7716
X2.1044Y-3.1565
X2.1094Y-3.4873
X2.121Y-2.7541
X2.1393Y-2.3601
X2.246Y-2.6838
X2.269Y-3.3094
X2.3322Y-3.0035
X2.3792Y-3.5747
X2.3828Y-3.2276
X2.4048Y-3.4414
X2.4469Y-2.3651
X2.5099Y-3.542
X2.5103Y-3.3514
X2.5227Y-2.893
X2.5395Y-2.5934
X2.5508Y-3.0923
X2.5577Y-3.799
X2.6431Y-3.2032
X2.673Y-3.5371
X2.6913Y-3.3406
X2.7482Y-2.6417
X2.7661Y-3.7567
X2.7669Y-3.8163
X2.7906Y-2.9775
X2.7994Y-3.203
X2.8155Y-2.4015
X2.8299Y-3.4715
X2.8534Y-3.6161
X2.9195Y-3.1635
X2.9213Y-2.5488
X2.9213Y-2.6386
X2.9214Y-2.7912
X2.9217Y-3.0129
X2.9646Y-3.6161
X2.9992Y-3.6779
X3.0017Y-3.8237
X3.0202Y-3.2497
X3.0225Y-2.389
X3.0893Y-3.1406
X3.0975Y-2.6428
X3.1592Y-3.5658
X3.1669Y-3.4528
X3.1696Y-3.2541
X3.3083Y-2.9787
X3.3094Y-2.5977
X3.312Y-2.8147
X3.3138Y-3.7875
X3.3171Y-3.5321
X3.3193Y-3.0827
X3.3461Y-3.3683
X3.3929Y-2.3601
X3.4248Y-2.6702
X3.5226Y-3.7633
X3.5231Y-3.6903
X3.5642Y-3.06
X3.5778Y-2.789
X3.6273Y-2.3717
X3.6442Y-3.6087
X3.7314Y-2.4802
X3.7653Y-3.6087
X3.8048Y-3.6853
X3.8097Y-3.8311
X3.8652Y-3.0704
X3.8667Y-2.6876
X3.8763Y-3.7531
X3.8841Y-3.2976
X3.8907Y-3.578
X3.9086Y-2.4751
X3.9898Y-2.4795
X4.033Y-2.8323
X4.0563Y-3.1881
X4.124Y-3.5732
X4.1408Y-3.4473
X4.1619Y-2.4758
X4.1843Y-2.9536
X4.1893Y-2.6926
X4.1899Y-3.2254
X4.2475Y-2.3684
X4.2578Y-3.5453
X4.2712Y-3.1529
X4.2741Y-3.3104
X4.2825Y-3.7891
X4.3259Y-2.7973
X4.344Y-2.9945
X4.3451Y-3.0846
X4.4429Y-3.3478
X4.4444Y-3.5521
X4.5066Y-3.7026
X4.5085Y-3.7583
X4.5218Y-2.3684
X4.5298Y-2.6582
X4.5439Y-3.0428
X4.5494Y-3.1274
X4.5517Y-2.9487
X4.5615Y-2.8304
X4.5818Y-2.598
X4.598Y-3.6137
X4.6396Y-3.2569
X4.7224Y-3.3968
X4.7241Y-3.6112
X4.7518Y-2.9968
X4.7636Y-3.6977
X4.7661Y-3.8015
X4.7773Y-2.6606
X4.809Y-3.2782
X4.8295Y-2.992
X4.835Y-3.4568
X4.8843Y-3.6137
X4.8905Y-2.409
X4.9096Y-2.9909
X4.9379Y-3.248
X4.948Y-2.6569
X4.9497Y-2.5654
X4.9546Y-2.8089
X4.9914Y-3.45
X4.9945Y-2.9923
X5.0037Y-3.3295
X5.0161Y-3.5476
X5.0401Y-2.424
X5.0596Y-3.679
X5.1242Y-2.9846
X5.1299Y-2.665
X5.1392Y-3.5354
X5.1473Y-3.4064
X5.1586Y-3.1992
X5.2265Y-3.7987
X5.2825Y-2.6595
X5.3045Y-3.5143
X5.308Y-3.6208
X5.3083Y-3.3828
X5.3163Y-3.047
X5.3415Y-2.962
X5.3649Y-2.5947
X5.3702Y-3.8061
X5.3709Y-3.7365
X5.423Y-2.3817
X5.4405Y-3.448
X5.4603Y-3.6296
X5.4751Y-2.97
X5.5308Y-3.6318
X5.5428Y-2.7935
X5.5534Y-3.1626
X5.6186Y-3.6853
X5.626Y-3.8064
X5.6815Y-3.3256
X5.7388Y-2.3817
X5.7505Y-3.4641
X5.7588Y-3.1149
X5.7654Y-3.7766
X5.7787Y-2.7575
T2
X2.4516Y-3.2916
X2.4516Y-3.3916
X2.4516Y-3.4916
X2.4516Y-3.5916
X2.7516Y-3.2916
X2.7516Y-3.3916
X2.7516Y-3.4916
X2.7516Y-3.5916
X3.243Y-3.2897
X3.243Y-3.3897
X3.243Y-3.4897
X3.243Y-3.5897
X3.543Y-3.2897
X3.543Y-3.3897
X3.543Y-3.4897
X3.543Y-3.5897
X4.2014Y-3.2975
X4.2014Y-3.3975
X4.2014Y-3.4975
X4.2014Y-3.5975
X4.5014Y-3.2975
X4.5014Y-3.3975
X4.5014Y-3.4975
X4.5014Y-3.5975
X5.0791Y-3.2902
X5.0791Y-3.3902
X5.0791Y-3.4902
X5.0791Y-3.5902
X5.3791Y-3.2902
X5.3791Y-3.3902
X5.3791Y-3.4902
X5.3791Y-3.5902
T3
X2.229Y-2.5947
X2.329Y-2.5947
X2.429Y-2.5947
X3.4115Y-2.5805
X3.5115Y-2.5805
X3.6115Y-2.5805
X3.8354Y-2.5809
X3.9354Y-2.5809
X4.0354Y-2.5809
X4.2603Y-2.5825
X4.3603Y-2.5825
X4.4603Y-2.5825
X5.4441Y-2.5827
X5.5441Y-2.5827
X5.6441Y-2.5827
T4
X2.2983Y-3.7507
X2.8983Y-3.7507
X3.0936Y-3.7492
X3.6936Y-3.7492
X4.0534Y-3.7599
X4.6534Y-3.7599
X4.9039Y-3.7585
X5.5039Y-3.7585
T5
X2.6745Y-2.8628
X2.6745Y-3.0794
X2.8399Y-2.8628
X2.8399Y-3.0794
X3.0053Y-2.8628
X3.0053Y-3.0794
X3.1706Y-2.8628
X3.1706Y-3.0794
X4.7048Y-2.882
X4.7048Y-3.0985
X4.8702Y-2.882
X4.8702Y-3.0985
X5.0355Y-2.882
X5.0355Y-3.0985
X5.2009Y-2.882
X5.2009Y-3.0985
T6
X2.6745Y-2.5754
X3.1706Y-2.5754
X4.7048Y-2.5946
X5.2009Y-2.5946
T0
M30
