%TF.GenerationSoftware,KiCad,Pcbnew,(6.0.1)*%
%TF.CreationDate,2022-11-02T05:16:37+00:00*%
%TF.ProjectId,Peak-And-Hold,5065616b-2d41-46e6-942d-486f6c642e6b,rev?*%
%TF.SameCoordinates,Original*%
%TF.FileFunction,Legend,Top*%
%TF.FilePolarity,Positive*%
%FSLAX46Y46*%
G04 Gerber Fmt 4.6, Leading zero omitted, Abs format (unit mm)*
G04 Created by KiCad (PCBNEW (6.0.1)) date 2022-11-02 05:16:37*
%MOMM*%
%LPD*%
G01*
G04 APERTURE LIST*
%ADD10C,0.300000*%
%ADD11C,0.150000*%
%ADD12C,0.120000*%
G04 APERTURE END LIST*
D10*
X110952289Y-59896772D02*
X110952289Y-58696772D01*
X111523717Y-59096772D02*
X111523717Y-59896772D01*
X111523717Y-59211057D02*
X111580860Y-59153915D01*
X111695146Y-59096772D01*
X111866574Y-59096772D01*
X111980860Y-59153915D01*
X112038003Y-59268200D01*
X112038003Y-59896772D01*
X112609432Y-59096772D02*
X112609432Y-60125343D01*
X112552289Y-60239629D01*
X112438003Y-60296772D01*
X112380860Y-60296772D01*
X112609432Y-58696772D02*
X112552289Y-58753915D01*
X112609432Y-58811057D01*
X112666574Y-58753915D01*
X112609432Y-58696772D01*
X112609432Y-58811057D01*
X113409432Y-58696772D02*
X113638003Y-58696772D01*
X113752289Y-58753915D01*
X113866574Y-58868200D01*
X113923717Y-59096772D01*
X113923717Y-59496772D01*
X113866574Y-59725343D01*
X113752289Y-59839629D01*
X113638003Y-59896772D01*
X113409432Y-59896772D01*
X113295146Y-59839629D01*
X113180860Y-59725343D01*
X113123717Y-59496772D01*
X113123717Y-59096772D01*
X113180860Y-58868200D01*
X113295146Y-58753915D01*
X113409432Y-58696772D01*
X114952289Y-59096772D02*
X114952289Y-59896772D01*
X114438003Y-59096772D02*
X114438003Y-59725343D01*
X114495146Y-59839629D01*
X114609432Y-59896772D01*
X114780860Y-59896772D01*
X114895146Y-59839629D01*
X114952289Y-59782486D01*
X115352289Y-59096772D02*
X115809432Y-59096772D01*
X115523717Y-58696772D02*
X115523717Y-59725343D01*
X115580860Y-59839629D01*
X115695146Y-59896772D01*
X115809432Y-59896772D01*
X116095146Y-58696772D02*
X116838003Y-58696772D01*
X116438003Y-59153915D01*
X116609432Y-59153915D01*
X116723717Y-59211057D01*
X116780860Y-59268200D01*
X116838003Y-59382486D01*
X116838003Y-59668200D01*
X116780860Y-59782486D01*
X116723717Y-59839629D01*
X116609432Y-59896772D01*
X116266574Y-59896772D01*
X116152289Y-59839629D01*
X116095146Y-59782486D01*
X118266574Y-59439629D02*
X119180860Y-59439629D01*
X120666574Y-59896772D02*
X120666574Y-58696772D01*
X121238003Y-59096772D02*
X121238003Y-59896772D01*
X121238003Y-59211057D02*
X121295146Y-59153915D01*
X121409432Y-59096772D01*
X121580860Y-59096772D01*
X121695146Y-59153915D01*
X121752289Y-59268200D01*
X121752289Y-59896772D01*
X122323717Y-59096772D02*
X122323717Y-60125343D01*
X122266574Y-60239629D01*
X122152289Y-60296772D01*
X122095146Y-60296772D01*
X122323717Y-58696772D02*
X122266574Y-58753915D01*
X122323717Y-58811057D01*
X122380860Y-58753915D01*
X122323717Y-58696772D01*
X122323717Y-58811057D01*
X122780860Y-58696772D02*
X123523717Y-58696772D01*
X123123717Y-59153915D01*
X123295146Y-59153915D01*
X123409432Y-59211057D01*
X123466574Y-59268200D01*
X123523717Y-59382486D01*
X123523717Y-59668200D01*
X123466574Y-59782486D01*
X123409432Y-59839629D01*
X123295146Y-59896772D01*
X122952289Y-59896772D01*
X122838003Y-59839629D01*
X122780860Y-59782486D01*
X124952289Y-59439629D02*
X125866574Y-59439629D01*
X127352289Y-59896772D02*
X127352289Y-58696772D01*
X127923717Y-59096772D02*
X127923717Y-59896772D01*
X127923717Y-59211057D02*
X127980860Y-59153915D01*
X128095146Y-59096772D01*
X128266574Y-59096772D01*
X128380860Y-59153915D01*
X128438003Y-59268200D01*
X128438003Y-59896772D01*
X129009432Y-59096772D02*
X129009432Y-60125343D01*
X128952289Y-60239629D01*
X128838003Y-60296772D01*
X128780860Y-60296772D01*
X129009432Y-58696772D02*
X128952289Y-58753915D01*
X129009432Y-58811057D01*
X129066574Y-58753915D01*
X129009432Y-58696772D01*
X129009432Y-58811057D01*
X130095146Y-59096772D02*
X130095146Y-59896772D01*
X129809432Y-58639629D02*
X129523717Y-59496772D01*
X130266574Y-59496772D01*
X131638003Y-59439629D02*
X132552289Y-59439629D01*
X134038003Y-59896772D02*
X134038003Y-58696772D01*
X134609432Y-59096772D02*
X134609432Y-59896772D01*
X134609432Y-59211057D02*
X134666574Y-59153915D01*
X134780860Y-59096772D01*
X134952289Y-59096772D01*
X135066574Y-59153915D01*
X135123717Y-59268200D01*
X135123717Y-59896772D01*
X135695146Y-59096772D02*
X135695146Y-60125343D01*
X135638003Y-60239629D01*
X135523717Y-60296772D01*
X135466574Y-60296772D01*
X135695146Y-58696772D02*
X135638003Y-58753915D01*
X135695146Y-58811057D01*
X135752289Y-58753915D01*
X135695146Y-58696772D01*
X135695146Y-58811057D01*
X136495146Y-58696772D02*
X136723717Y-58696772D01*
X136838003Y-58753915D01*
X136952289Y-58868200D01*
X137009432Y-59096772D01*
X137009432Y-59496772D01*
X136952289Y-59725343D01*
X136838003Y-59839629D01*
X136723717Y-59896772D01*
X136495146Y-59896772D01*
X136380860Y-59839629D01*
X136266574Y-59725343D01*
X136209432Y-59496772D01*
X136209432Y-59096772D01*
X136266574Y-58868200D01*
X136380860Y-58753915D01*
X136495146Y-58696772D01*
X138038003Y-59096772D02*
X138038003Y-59896772D01*
X137523717Y-59096772D02*
X137523717Y-59725343D01*
X137580860Y-59839629D01*
X137695146Y-59896772D01*
X137866574Y-59896772D01*
X137980860Y-59839629D01*
X138038003Y-59782486D01*
X138438003Y-59096772D02*
X138895146Y-59096772D01*
X138609432Y-58696772D02*
X138609432Y-59725343D01*
X138666574Y-59839629D01*
X138780860Y-59896772D01*
X138895146Y-59896772D01*
X139809432Y-59096772D02*
X139809432Y-59896772D01*
X139523717Y-58639629D02*
X139238003Y-59496772D01*
X139980860Y-59496772D01*
X108838003Y-61828772D02*
X108838003Y-60628772D01*
X108838003Y-61200200D02*
X109523717Y-61200200D01*
X109523717Y-61828772D02*
X109523717Y-60628772D01*
X110095146Y-61828772D02*
X110095146Y-61028772D01*
X110095146Y-60628772D02*
X110038003Y-60685915D01*
X110095146Y-60743057D01*
X110152289Y-60685915D01*
X110095146Y-60628772D01*
X110095146Y-60743057D01*
X111180860Y-61028772D02*
X111180860Y-62000200D01*
X111123717Y-62114486D01*
X111066574Y-62171629D01*
X110952289Y-62228772D01*
X110780860Y-62228772D01*
X110666574Y-62171629D01*
X111180860Y-61771629D02*
X111066574Y-61828772D01*
X110838003Y-61828772D01*
X110723717Y-61771629D01*
X110666574Y-61714486D01*
X110609431Y-61600200D01*
X110609431Y-61257343D01*
X110666574Y-61143057D01*
X110723717Y-61085915D01*
X110838003Y-61028772D01*
X111066574Y-61028772D01*
X111180860Y-61085915D01*
X111752289Y-61828772D02*
X111752289Y-60628772D01*
X112266574Y-61828772D02*
X112266574Y-61200200D01*
X112209431Y-61085915D01*
X112095146Y-61028772D01*
X111923717Y-61028772D01*
X111809431Y-61085915D01*
X111752289Y-61143057D01*
X113466574Y-60685915D02*
X113352289Y-60628772D01*
X113180860Y-60628772D01*
X113009431Y-60685915D01*
X112895146Y-60800200D01*
X112838003Y-60914486D01*
X112780860Y-61143057D01*
X112780860Y-61314486D01*
X112838003Y-61543057D01*
X112895146Y-61657343D01*
X113009431Y-61771629D01*
X113180860Y-61828772D01*
X113295146Y-61828772D01*
X113466574Y-61771629D01*
X113523717Y-61714486D01*
X113523717Y-61314486D01*
X113295146Y-61314486D01*
X114038003Y-61828772D02*
X114038003Y-60628772D01*
X114723717Y-61828772D01*
X114723717Y-60628772D01*
X115295146Y-61828772D02*
X115295146Y-60628772D01*
X115580860Y-60628772D01*
X115752289Y-60685915D01*
X115866574Y-60800200D01*
X115923717Y-60914486D01*
X115980860Y-61143057D01*
X115980860Y-61314486D01*
X115923717Y-61543057D01*
X115866574Y-61657343D01*
X115752289Y-61771629D01*
X115580860Y-61828772D01*
X115295146Y-61828772D01*
X117409431Y-61371629D02*
X118323717Y-61371629D01*
X120380860Y-61828772D02*
X119809431Y-61828772D01*
X119809431Y-60628772D01*
X120952289Y-61828772D02*
X120838003Y-61771629D01*
X120780860Y-61714486D01*
X120723717Y-61600200D01*
X120723717Y-61257343D01*
X120780860Y-61143057D01*
X120838003Y-61085915D01*
X120952289Y-61028772D01*
X121123717Y-61028772D01*
X121238003Y-61085915D01*
X121295146Y-61143057D01*
X121352289Y-61257343D01*
X121352289Y-61600200D01*
X121295146Y-61714486D01*
X121238003Y-61771629D01*
X121123717Y-61828772D01*
X120952289Y-61828772D01*
X121752289Y-61028772D02*
X121980860Y-61828772D01*
X122209431Y-61257343D01*
X122438003Y-61828772D01*
X122666574Y-61028772D01*
X123752289Y-60685915D02*
X123638003Y-60628772D01*
X123466574Y-60628772D01*
X123295146Y-60685915D01*
X123180860Y-60800200D01*
X123123717Y-60914486D01*
X123066574Y-61143057D01*
X123066574Y-61314486D01*
X123123717Y-61543057D01*
X123180860Y-61657343D01*
X123295146Y-61771629D01*
X123466574Y-61828772D01*
X123580860Y-61828772D01*
X123752289Y-61771629D01*
X123809431Y-61714486D01*
X123809431Y-61314486D01*
X123580860Y-61314486D01*
X124323717Y-61828772D02*
X124323717Y-60628772D01*
X125009431Y-61828772D01*
X125009431Y-60628772D01*
X125580860Y-61828772D02*
X125580860Y-60628772D01*
X125866574Y-60628772D01*
X126038003Y-60685915D01*
X126152289Y-60800200D01*
X126209431Y-60914486D01*
X126266574Y-61143057D01*
X126266574Y-61314486D01*
X126209431Y-61543057D01*
X126152289Y-61657343D01*
X126038003Y-61771629D01*
X125866574Y-61828772D01*
X125580860Y-61828772D01*
X127695146Y-61371629D02*
X128609431Y-61371629D01*
X130666574Y-61828772D02*
X130095146Y-61828772D01*
X130095146Y-60628772D01*
X131238003Y-61828772D02*
X131123717Y-61771629D01*
X131066574Y-61714486D01*
X131009431Y-61600200D01*
X131009431Y-61257343D01*
X131066574Y-61143057D01*
X131123717Y-61085915D01*
X131238003Y-61028772D01*
X131409431Y-61028772D01*
X131523717Y-61085915D01*
X131580860Y-61143057D01*
X131638003Y-61257343D01*
X131638003Y-61600200D01*
X131580860Y-61714486D01*
X131523717Y-61771629D01*
X131409431Y-61828772D01*
X131238003Y-61828772D01*
X132038003Y-61028772D02*
X132266574Y-61828772D01*
X132495146Y-61257343D01*
X132723717Y-61828772D01*
X132952289Y-61028772D01*
X134038003Y-60685915D02*
X133923717Y-60628772D01*
X133752289Y-60628772D01*
X133580860Y-60685915D01*
X133466574Y-60800200D01*
X133409431Y-60914486D01*
X133352289Y-61143057D01*
X133352289Y-61314486D01*
X133409431Y-61543057D01*
X133466574Y-61657343D01*
X133580860Y-61771629D01*
X133752289Y-61828772D01*
X133866574Y-61828772D01*
X134038003Y-61771629D01*
X134095146Y-61714486D01*
X134095146Y-61314486D01*
X133866574Y-61314486D01*
X134609432Y-61828772D02*
X134609432Y-60628772D01*
X135295146Y-61828772D01*
X135295146Y-60628772D01*
X135866574Y-61828772D02*
X135866574Y-60628772D01*
X136152289Y-60628772D01*
X136323717Y-60685915D01*
X136438003Y-60800200D01*
X136495146Y-60914486D01*
X136552289Y-61143057D01*
X136552289Y-61314486D01*
X136495146Y-61543057D01*
X136438003Y-61657343D01*
X136323717Y-61771629D01*
X136152289Y-61828772D01*
X135866574Y-61828772D01*
X137980860Y-61371629D02*
X138895146Y-61371629D01*
X140952289Y-60628772D02*
X140380860Y-60628772D01*
X140323717Y-61200200D01*
X140380860Y-61143057D01*
X140495146Y-61085915D01*
X140780860Y-61085915D01*
X140895146Y-61143057D01*
X140952289Y-61200200D01*
X141009432Y-61314486D01*
X141009432Y-61600200D01*
X140952289Y-61714486D01*
X140895146Y-61771629D01*
X140780860Y-61828772D01*
X140495146Y-61828772D01*
X140380860Y-61771629D01*
X140323717Y-61714486D01*
X141352289Y-60628772D02*
X141752289Y-61828772D01*
X142152289Y-60628772D01*
X58918336Y-60001267D02*
X58918336Y-58801267D01*
X59489764Y-59201267D02*
X59489764Y-60001267D01*
X59489764Y-59315552D02*
X59546907Y-59258410D01*
X59661193Y-59201267D01*
X59832621Y-59201267D01*
X59946907Y-59258410D01*
X60004050Y-59372695D01*
X60004050Y-60001267D01*
X60575479Y-59201267D02*
X60575479Y-60229838D01*
X60518336Y-60344124D01*
X60404050Y-60401267D01*
X60346907Y-60401267D01*
X60575479Y-58801267D02*
X60518336Y-58858410D01*
X60575479Y-58915552D01*
X60632621Y-58858410D01*
X60575479Y-58801267D01*
X60575479Y-58915552D01*
X61375479Y-58801267D02*
X61604050Y-58801267D01*
X61718336Y-58858410D01*
X61832621Y-58972695D01*
X61889764Y-59201267D01*
X61889764Y-59601267D01*
X61832621Y-59829838D01*
X61718336Y-59944124D01*
X61604050Y-60001267D01*
X61375479Y-60001267D01*
X61261193Y-59944124D01*
X61146907Y-59829838D01*
X61089764Y-59601267D01*
X61089764Y-59201267D01*
X61146907Y-58972695D01*
X61261193Y-58858410D01*
X61375479Y-58801267D01*
X62918336Y-59201267D02*
X62918336Y-60001267D01*
X62404050Y-59201267D02*
X62404050Y-59829838D01*
X62461193Y-59944124D01*
X62575479Y-60001267D01*
X62746907Y-60001267D01*
X62861193Y-59944124D01*
X62918336Y-59886981D01*
X63318336Y-59201267D02*
X63775479Y-59201267D01*
X63489764Y-58801267D02*
X63489764Y-59829838D01*
X63546907Y-59944124D01*
X63661193Y-60001267D01*
X63775479Y-60001267D01*
X64804050Y-60001267D02*
X64118336Y-60001267D01*
X64461193Y-60001267D02*
X64461193Y-58801267D01*
X64346907Y-58972695D01*
X64232621Y-59086981D01*
X64118336Y-59144124D01*
X66232621Y-59544124D02*
X67146907Y-59544124D01*
X68632621Y-60001267D02*
X68632621Y-58801267D01*
X69204050Y-59201267D02*
X69204050Y-60001267D01*
X69204050Y-59315552D02*
X69261193Y-59258410D01*
X69375479Y-59201267D01*
X69546907Y-59201267D01*
X69661193Y-59258410D01*
X69718336Y-59372695D01*
X69718336Y-60001267D01*
X70289764Y-59201267D02*
X70289764Y-60229838D01*
X70232621Y-60344124D01*
X70118336Y-60401267D01*
X70061193Y-60401267D01*
X70289764Y-58801267D02*
X70232621Y-58858410D01*
X70289764Y-58915552D01*
X70346907Y-58858410D01*
X70289764Y-58801267D01*
X70289764Y-58915552D01*
X71489764Y-60001267D02*
X70804050Y-60001267D01*
X71146907Y-60001267D02*
X71146907Y-58801267D01*
X71032621Y-58972695D01*
X70918336Y-59086981D01*
X70804050Y-59144124D01*
X72918336Y-59544124D02*
X73832621Y-59544124D01*
X75318336Y-60001267D02*
X75318336Y-58801267D01*
X75889764Y-59201267D02*
X75889764Y-60001267D01*
X75889764Y-59315552D02*
X75946907Y-59258410D01*
X76061193Y-59201267D01*
X76232621Y-59201267D01*
X76346907Y-59258410D01*
X76404050Y-59372695D01*
X76404050Y-60001267D01*
X76975479Y-59201267D02*
X76975479Y-60229838D01*
X76918336Y-60344124D01*
X76804050Y-60401267D01*
X76746907Y-60401267D01*
X76975479Y-58801267D02*
X76918336Y-58858410D01*
X76975479Y-58915552D01*
X77032621Y-58858410D01*
X76975479Y-58801267D01*
X76975479Y-58915552D01*
X77489764Y-58915552D02*
X77546907Y-58858410D01*
X77661193Y-58801267D01*
X77946907Y-58801267D01*
X78061193Y-58858410D01*
X78118336Y-58915552D01*
X78175479Y-59029838D01*
X78175479Y-59144124D01*
X78118336Y-59315552D01*
X77432621Y-60001267D01*
X78175479Y-60001267D01*
X79604050Y-59544124D02*
X80518336Y-59544124D01*
X82004050Y-60001267D02*
X82004050Y-58801267D01*
X82575479Y-59201267D02*
X82575479Y-60001267D01*
X82575479Y-59315552D02*
X82632621Y-59258410D01*
X82746907Y-59201267D01*
X82918336Y-59201267D01*
X83032621Y-59258410D01*
X83089764Y-59372695D01*
X83089764Y-60001267D01*
X83661193Y-59201267D02*
X83661193Y-60229838D01*
X83604050Y-60344124D01*
X83489764Y-60401267D01*
X83432621Y-60401267D01*
X83661193Y-58801267D02*
X83604050Y-58858410D01*
X83661193Y-58915552D01*
X83718336Y-58858410D01*
X83661193Y-58801267D01*
X83661193Y-58915552D01*
X84461193Y-58801267D02*
X84689764Y-58801267D01*
X84804050Y-58858410D01*
X84918336Y-58972695D01*
X84975479Y-59201267D01*
X84975479Y-59601267D01*
X84918336Y-59829838D01*
X84804050Y-59944124D01*
X84689764Y-60001267D01*
X84461193Y-60001267D01*
X84346907Y-59944124D01*
X84232621Y-59829838D01*
X84175479Y-59601267D01*
X84175479Y-59201267D01*
X84232621Y-58972695D01*
X84346907Y-58858410D01*
X84461193Y-58801267D01*
X86004050Y-59201267D02*
X86004050Y-60001267D01*
X85489764Y-59201267D02*
X85489764Y-59829838D01*
X85546907Y-59944124D01*
X85661193Y-60001267D01*
X85832621Y-60001267D01*
X85946907Y-59944124D01*
X86004050Y-59886981D01*
X86404050Y-59201267D02*
X86861193Y-59201267D01*
X86575479Y-58801267D02*
X86575479Y-59829838D01*
X86632621Y-59944124D01*
X86746907Y-60001267D01*
X86861193Y-60001267D01*
X87204050Y-58915552D02*
X87261193Y-58858410D01*
X87375479Y-58801267D01*
X87661193Y-58801267D01*
X87775479Y-58858410D01*
X87832621Y-58915552D01*
X87889764Y-59029838D01*
X87889764Y-59144124D01*
X87832621Y-59315552D01*
X87146907Y-60001267D01*
X87889764Y-60001267D01*
X56804050Y-61933267D02*
X56804050Y-60733267D01*
X56804050Y-61304695D02*
X57489764Y-61304695D01*
X57489764Y-61933267D02*
X57489764Y-60733267D01*
X58061193Y-61933267D02*
X58061193Y-61133267D01*
X58061193Y-60733267D02*
X58004050Y-60790410D01*
X58061193Y-60847552D01*
X58118336Y-60790410D01*
X58061193Y-60733267D01*
X58061193Y-60847552D01*
X59146907Y-61133267D02*
X59146907Y-62104695D01*
X59089764Y-62218981D01*
X59032621Y-62276124D01*
X58918336Y-62333267D01*
X58746907Y-62333267D01*
X58632621Y-62276124D01*
X59146907Y-61876124D02*
X59032621Y-61933267D01*
X58804050Y-61933267D01*
X58689764Y-61876124D01*
X58632621Y-61818981D01*
X58575479Y-61704695D01*
X58575479Y-61361838D01*
X58632621Y-61247552D01*
X58689764Y-61190410D01*
X58804050Y-61133267D01*
X59032621Y-61133267D01*
X59146907Y-61190410D01*
X59718336Y-61933267D02*
X59718336Y-60733267D01*
X60232621Y-61933267D02*
X60232621Y-61304695D01*
X60175479Y-61190410D01*
X60061193Y-61133267D01*
X59889764Y-61133267D01*
X59775479Y-61190410D01*
X59718336Y-61247552D01*
X61432621Y-60790410D02*
X61318336Y-60733267D01*
X61146907Y-60733267D01*
X60975479Y-60790410D01*
X60861193Y-60904695D01*
X60804050Y-61018981D01*
X60746907Y-61247552D01*
X60746907Y-61418981D01*
X60804050Y-61647552D01*
X60861193Y-61761838D01*
X60975479Y-61876124D01*
X61146907Y-61933267D01*
X61261193Y-61933267D01*
X61432621Y-61876124D01*
X61489764Y-61818981D01*
X61489764Y-61418981D01*
X61261193Y-61418981D01*
X62004050Y-61933267D02*
X62004050Y-60733267D01*
X62689764Y-61933267D01*
X62689764Y-60733267D01*
X63261193Y-61933267D02*
X63261193Y-60733267D01*
X63546907Y-60733267D01*
X63718336Y-60790410D01*
X63832621Y-60904695D01*
X63889764Y-61018981D01*
X63946907Y-61247552D01*
X63946907Y-61418981D01*
X63889764Y-61647552D01*
X63832621Y-61761838D01*
X63718336Y-61876124D01*
X63546907Y-61933267D01*
X63261193Y-61933267D01*
X65375479Y-61476124D02*
X66289764Y-61476124D01*
X68346907Y-61933267D02*
X67775479Y-61933267D01*
X67775479Y-60733267D01*
X68918336Y-61933267D02*
X68804050Y-61876124D01*
X68746907Y-61818981D01*
X68689764Y-61704695D01*
X68689764Y-61361838D01*
X68746907Y-61247552D01*
X68804050Y-61190410D01*
X68918336Y-61133267D01*
X69089764Y-61133267D01*
X69204050Y-61190410D01*
X69261193Y-61247552D01*
X69318336Y-61361838D01*
X69318336Y-61704695D01*
X69261193Y-61818981D01*
X69204050Y-61876124D01*
X69089764Y-61933267D01*
X68918336Y-61933267D01*
X69718336Y-61133267D02*
X69946907Y-61933267D01*
X70175479Y-61361838D01*
X70404050Y-61933267D01*
X70632621Y-61133267D01*
X71718336Y-60790410D02*
X71604050Y-60733267D01*
X71432621Y-60733267D01*
X71261193Y-60790410D01*
X71146907Y-60904695D01*
X71089764Y-61018981D01*
X71032621Y-61247552D01*
X71032621Y-61418981D01*
X71089764Y-61647552D01*
X71146907Y-61761838D01*
X71261193Y-61876124D01*
X71432621Y-61933267D01*
X71546907Y-61933267D01*
X71718336Y-61876124D01*
X71775479Y-61818981D01*
X71775479Y-61418981D01*
X71546907Y-61418981D01*
X72289764Y-61933267D02*
X72289764Y-60733267D01*
X72975479Y-61933267D01*
X72975479Y-60733267D01*
X73546907Y-61933267D02*
X73546907Y-60733267D01*
X73832621Y-60733267D01*
X74004050Y-60790410D01*
X74118336Y-60904695D01*
X74175479Y-61018981D01*
X74232621Y-61247552D01*
X74232621Y-61418981D01*
X74175479Y-61647552D01*
X74118336Y-61761838D01*
X74004050Y-61876124D01*
X73832621Y-61933267D01*
X73546907Y-61933267D01*
X75661193Y-61476124D02*
X76575479Y-61476124D01*
X78632621Y-61933267D02*
X78061193Y-61933267D01*
X78061193Y-60733267D01*
X79204050Y-61933267D02*
X79089764Y-61876124D01*
X79032621Y-61818981D01*
X78975479Y-61704695D01*
X78975479Y-61361838D01*
X79032621Y-61247552D01*
X79089764Y-61190410D01*
X79204050Y-61133267D01*
X79375479Y-61133267D01*
X79489764Y-61190410D01*
X79546907Y-61247552D01*
X79604050Y-61361838D01*
X79604050Y-61704695D01*
X79546907Y-61818981D01*
X79489764Y-61876124D01*
X79375479Y-61933267D01*
X79204050Y-61933267D01*
X80004050Y-61133267D02*
X80232621Y-61933267D01*
X80461193Y-61361838D01*
X80689764Y-61933267D01*
X80918336Y-61133267D01*
X82004050Y-60790410D02*
X81889764Y-60733267D01*
X81718336Y-60733267D01*
X81546907Y-60790410D01*
X81432621Y-60904695D01*
X81375479Y-61018981D01*
X81318336Y-61247552D01*
X81318336Y-61418981D01*
X81375479Y-61647552D01*
X81432621Y-61761838D01*
X81546907Y-61876124D01*
X81718336Y-61933267D01*
X81832621Y-61933267D01*
X82004050Y-61876124D01*
X82061193Y-61818981D01*
X82061193Y-61418981D01*
X81832621Y-61418981D01*
X82575479Y-61933267D02*
X82575479Y-60733267D01*
X83261193Y-61933267D01*
X83261193Y-60733267D01*
X83832621Y-61933267D02*
X83832621Y-60733267D01*
X84118336Y-60733267D01*
X84289764Y-60790410D01*
X84404050Y-60904695D01*
X84461193Y-61018981D01*
X84518336Y-61247552D01*
X84518336Y-61418981D01*
X84461193Y-61647552D01*
X84404050Y-61761838D01*
X84289764Y-61876124D01*
X84118336Y-61933267D01*
X83832621Y-61933267D01*
X85946907Y-61476124D02*
X86861193Y-61476124D01*
X88918336Y-60733267D02*
X88346907Y-60733267D01*
X88289764Y-61304695D01*
X88346907Y-61247552D01*
X88461193Y-61190410D01*
X88746907Y-61190410D01*
X88861193Y-61247552D01*
X88918336Y-61304695D01*
X88975479Y-61418981D01*
X88975479Y-61704695D01*
X88918336Y-61818981D01*
X88861193Y-61876124D01*
X88746907Y-61933267D01*
X88461193Y-61933267D01*
X88346907Y-61876124D01*
X88289764Y-61818981D01*
X89318336Y-60733267D02*
X89718336Y-61933267D01*
X90118336Y-60733267D01*
X88361980Y-77350859D02*
X88361980Y-75850859D01*
X88933408Y-75850859D01*
X89076265Y-75922288D01*
X89147694Y-75993716D01*
X89219123Y-76136573D01*
X89219123Y-76350859D01*
X89147694Y-76493716D01*
X89076265Y-76565145D01*
X88933408Y-76636573D01*
X88361980Y-76636573D01*
X90433408Y-77279430D02*
X90290551Y-77350859D01*
X90004837Y-77350859D01*
X89861980Y-77279430D01*
X89790551Y-77136573D01*
X89790551Y-76565145D01*
X89861980Y-76422288D01*
X90004837Y-76350859D01*
X90290551Y-76350859D01*
X90433408Y-76422288D01*
X90504837Y-76565145D01*
X90504837Y-76708002D01*
X89790551Y-76850859D01*
X91790551Y-77350859D02*
X91790551Y-76565145D01*
X91719123Y-76422288D01*
X91576265Y-76350859D01*
X91290551Y-76350859D01*
X91147694Y-76422288D01*
X91790551Y-77279430D02*
X91647694Y-77350859D01*
X91290551Y-77350859D01*
X91147694Y-77279430D01*
X91076265Y-77136573D01*
X91076265Y-76993716D01*
X91147694Y-76850859D01*
X91290551Y-76779430D01*
X91647694Y-76779430D01*
X91790551Y-76708002D01*
X92504837Y-77350859D02*
X92504837Y-75850859D01*
X92647694Y-76779430D02*
X93076265Y-77350859D01*
X93076265Y-76350859D02*
X92504837Y-76922288D01*
X95504837Y-77350859D02*
X95504837Y-76565145D01*
X95433408Y-76422288D01*
X95290551Y-76350859D01*
X95004837Y-76350859D01*
X94861980Y-76422288D01*
X95504837Y-77279430D02*
X95361980Y-77350859D01*
X95004837Y-77350859D01*
X94861980Y-77279430D01*
X94790551Y-77136573D01*
X94790551Y-76993716D01*
X94861980Y-76850859D01*
X95004837Y-76779430D01*
X95361980Y-76779430D01*
X95504837Y-76708002D01*
X96219123Y-76350859D02*
X96219123Y-77350859D01*
X96219123Y-76493716D02*
X96290551Y-76422288D01*
X96433408Y-76350859D01*
X96647694Y-76350859D01*
X96790551Y-76422288D01*
X96861980Y-76565145D01*
X96861980Y-77350859D01*
X98219123Y-77350859D02*
X98219123Y-75850859D01*
X98219123Y-77279430D02*
X98076265Y-77350859D01*
X97790551Y-77350859D01*
X97647694Y-77279430D01*
X97576265Y-77208002D01*
X97504837Y-77065145D01*
X97504837Y-76636573D01*
X97576265Y-76493716D01*
X97647694Y-76422288D01*
X97790551Y-76350859D01*
X98076265Y-76350859D01*
X98219123Y-76422288D01*
X100076265Y-77350859D02*
X100076265Y-75850859D01*
X100076265Y-76565145D02*
X100933408Y-76565145D01*
X100933408Y-77350859D02*
X100933408Y-75850859D01*
X101861980Y-77350859D02*
X101719123Y-77279430D01*
X101647694Y-77208002D01*
X101576265Y-77065145D01*
X101576265Y-76636573D01*
X101647694Y-76493716D01*
X101719123Y-76422288D01*
X101861980Y-76350859D01*
X102076265Y-76350859D01*
X102219123Y-76422288D01*
X102290551Y-76493716D01*
X102361980Y-76636573D01*
X102361980Y-77065145D01*
X102290551Y-77208002D01*
X102219123Y-77279430D01*
X102076265Y-77350859D01*
X101861980Y-77350859D01*
X103219123Y-77350859D02*
X103076265Y-77279430D01*
X103004837Y-77136573D01*
X103004837Y-75850859D01*
X104433408Y-77350859D02*
X104433408Y-75850859D01*
X104433408Y-77279430D02*
X104290551Y-77350859D01*
X104004837Y-77350859D01*
X103861980Y-77279430D01*
X103790551Y-77208002D01*
X103719123Y-77065145D01*
X103719123Y-76636573D01*
X103790551Y-76493716D01*
X103861980Y-76422288D01*
X104004837Y-76350859D01*
X104290551Y-76350859D01*
X104433408Y-76422288D01*
X106290551Y-77350859D02*
X106290551Y-75850859D01*
X106647694Y-75850859D01*
X106861980Y-75922288D01*
X107004837Y-76065145D01*
X107076265Y-76208002D01*
X107147694Y-76493716D01*
X107147694Y-76708002D01*
X107076265Y-76993716D01*
X107004837Y-77136573D01*
X106861980Y-77279430D01*
X106647694Y-77350859D01*
X106290551Y-77350859D01*
X107790551Y-77350859D02*
X107790551Y-76350859D01*
X107790551Y-76636573D02*
X107861980Y-76493716D01*
X107933408Y-76422288D01*
X108076265Y-76350859D01*
X108219123Y-76350859D01*
X108719123Y-77350859D02*
X108719123Y-76350859D01*
X108719123Y-75850859D02*
X108647694Y-75922288D01*
X108719123Y-75993716D01*
X108790551Y-75922288D01*
X108719123Y-75850859D01*
X108719123Y-75993716D01*
X109290551Y-76350859D02*
X109647694Y-77350859D01*
X110004837Y-76350859D01*
X111147694Y-77279430D02*
X111004837Y-77350859D01*
X110719123Y-77350859D01*
X110576265Y-77279430D01*
X110504837Y-77136573D01*
X110504837Y-76565145D01*
X110576265Y-76422288D01*
X110719123Y-76350859D01*
X111004837Y-76350859D01*
X111147694Y-76422288D01*
X111219123Y-76565145D01*
X111219123Y-76708002D01*
X110504837Y-76850859D01*
X111861980Y-77350859D02*
X111861980Y-76350859D01*
X111861980Y-76636573D02*
X111933408Y-76493716D01*
X112004837Y-76422288D01*
X112147694Y-76350859D01*
X112290551Y-76350859D01*
X84790551Y-78980145D02*
X84290551Y-78980145D01*
X84290551Y-79765859D02*
X84290551Y-78265859D01*
X85004837Y-78265859D01*
X86219123Y-78765859D02*
X86219123Y-79765859D01*
X85576265Y-78765859D02*
X85576265Y-79551573D01*
X85647694Y-79694430D01*
X85790551Y-79765859D01*
X86004837Y-79765859D01*
X86147694Y-79694430D01*
X86219123Y-79623002D01*
X86719123Y-78765859D02*
X87290551Y-78765859D01*
X86933408Y-78265859D02*
X86933408Y-79551573D01*
X87004837Y-79694430D01*
X87147694Y-79765859D01*
X87290551Y-79765859D01*
X88433408Y-78765859D02*
X88433408Y-79765859D01*
X87790551Y-78765859D02*
X87790551Y-79551573D01*
X87861980Y-79694430D01*
X88004837Y-79765859D01*
X88219123Y-79765859D01*
X88361980Y-79694430D01*
X88433408Y-79623002D01*
X89147694Y-79765859D02*
X89147694Y-78765859D01*
X89147694Y-79051573D02*
X89219123Y-78908716D01*
X89290551Y-78837288D01*
X89433408Y-78765859D01*
X89576265Y-78765859D01*
X90647694Y-79694430D02*
X90504837Y-79765859D01*
X90219123Y-79765859D01*
X90076265Y-79694430D01*
X90004837Y-79551573D01*
X90004837Y-78980145D01*
X90076265Y-78837288D01*
X90219123Y-78765859D01*
X90504837Y-78765859D01*
X90647694Y-78837288D01*
X90719123Y-78980145D01*
X90719123Y-79123002D01*
X90004837Y-79265859D01*
X91361980Y-79765859D02*
X91361980Y-78265859D01*
X91933408Y-78265859D01*
X92076265Y-78337288D01*
X92147694Y-78408716D01*
X92219123Y-78551573D01*
X92219123Y-78765859D01*
X92147694Y-78908716D01*
X92076265Y-78980145D01*
X91933408Y-79051573D01*
X91361980Y-79051573D01*
X92861980Y-79765859D02*
X92861980Y-78765859D01*
X92861980Y-79051573D02*
X92933408Y-78908716D01*
X93004837Y-78837288D01*
X93147694Y-78765859D01*
X93290551Y-78765859D01*
X94004837Y-79765859D02*
X93861980Y-79694430D01*
X93790551Y-79623002D01*
X93719123Y-79480145D01*
X93719123Y-79051573D01*
X93790551Y-78908716D01*
X93861980Y-78837288D01*
X94004837Y-78765859D01*
X94219123Y-78765859D01*
X94361980Y-78837288D01*
X94433408Y-78908716D01*
X94504837Y-79051573D01*
X94504837Y-79480145D01*
X94433408Y-79623002D01*
X94361980Y-79694430D01*
X94219123Y-79765859D01*
X94004837Y-79765859D01*
X95361980Y-79765859D02*
X95219123Y-79694430D01*
X95147694Y-79623002D01*
X95076265Y-79480145D01*
X95076265Y-79051573D01*
X95147694Y-78908716D01*
X95219123Y-78837288D01*
X95361980Y-78765859D01*
X95576265Y-78765859D01*
X95719123Y-78837288D01*
X95790551Y-78908716D01*
X95861980Y-79051573D01*
X95861980Y-79480145D01*
X95790551Y-79623002D01*
X95719123Y-79694430D01*
X95576265Y-79765859D01*
X95361980Y-79765859D01*
X96290551Y-78765859D02*
X96861980Y-78765859D01*
X96504837Y-79765859D02*
X96504837Y-78480145D01*
X96576265Y-78337288D01*
X96719123Y-78265859D01*
X96861980Y-78265859D01*
X97361980Y-79765859D02*
X97361980Y-78265859D01*
X97933408Y-78265859D01*
X98076265Y-78337288D01*
X98147694Y-78408716D01*
X98219123Y-78551573D01*
X98219123Y-78765859D01*
X98147694Y-78908716D01*
X98076265Y-78980145D01*
X97933408Y-79051573D01*
X97361980Y-79051573D01*
X99433408Y-79694430D02*
X99290551Y-79765859D01*
X99004837Y-79765859D01*
X98861980Y-79694430D01*
X98790551Y-79551573D01*
X98790551Y-78980145D01*
X98861980Y-78837288D01*
X99004837Y-78765859D01*
X99290551Y-78765859D01*
X99433408Y-78837288D01*
X99504837Y-78980145D01*
X99504837Y-79123002D01*
X98790551Y-79265859D01*
X100147694Y-79765859D02*
X100147694Y-78765859D01*
X100147694Y-79051573D02*
X100219123Y-78908716D01*
X100290551Y-78837288D01*
X100433408Y-78765859D01*
X100576265Y-78765859D01*
X100861980Y-78765859D02*
X101433408Y-78765859D01*
X101076265Y-79765859D02*
X101076265Y-78480145D01*
X101147694Y-78337288D01*
X101290551Y-78265859D01*
X101433408Y-78265859D01*
X102147694Y-79765859D02*
X102004837Y-79694430D01*
X101933408Y-79623002D01*
X101861980Y-79480145D01*
X101861980Y-79051573D01*
X101933408Y-78908716D01*
X102004837Y-78837288D01*
X102147694Y-78765859D01*
X102361980Y-78765859D01*
X102504837Y-78837288D01*
X102576265Y-78908716D01*
X102647694Y-79051573D01*
X102647694Y-79480145D01*
X102576265Y-79623002D01*
X102504837Y-79694430D01*
X102361980Y-79765859D01*
X102147694Y-79765859D01*
X103290551Y-79765859D02*
X103290551Y-78765859D01*
X103290551Y-79051573D02*
X103361980Y-78908716D01*
X103433408Y-78837288D01*
X103576265Y-78765859D01*
X103719123Y-78765859D01*
X104219123Y-79765859D02*
X104219123Y-78765859D01*
X104219123Y-78908716D02*
X104290551Y-78837288D01*
X104433408Y-78765859D01*
X104647694Y-78765859D01*
X104790551Y-78837288D01*
X104861980Y-78980145D01*
X104861980Y-79765859D01*
X104861980Y-78980145D02*
X104933408Y-78837288D01*
X105076265Y-78765859D01*
X105290551Y-78765859D01*
X105433408Y-78837288D01*
X105504837Y-78980145D01*
X105504837Y-79765859D01*
X106861980Y-79765859D02*
X106861980Y-78980145D01*
X106790551Y-78837288D01*
X106647694Y-78765859D01*
X106361980Y-78765859D01*
X106219123Y-78837288D01*
X106861980Y-79694430D02*
X106719123Y-79765859D01*
X106361980Y-79765859D01*
X106219123Y-79694430D01*
X106147694Y-79551573D01*
X106147694Y-79408716D01*
X106219123Y-79265859D01*
X106361980Y-79194430D01*
X106719123Y-79194430D01*
X106861980Y-79123002D01*
X107576265Y-78765859D02*
X107576265Y-79765859D01*
X107576265Y-78908716D02*
X107647694Y-78837288D01*
X107790551Y-78765859D01*
X108004837Y-78765859D01*
X108147694Y-78837288D01*
X108219123Y-78980145D01*
X108219123Y-79765859D01*
X109576265Y-79694430D02*
X109433408Y-79765859D01*
X109147694Y-79765859D01*
X109004837Y-79694430D01*
X108933408Y-79623002D01*
X108861980Y-79480145D01*
X108861980Y-79051573D01*
X108933408Y-78908716D01*
X109004837Y-78837288D01*
X109147694Y-78765859D01*
X109433408Y-78765859D01*
X109576265Y-78837288D01*
X110790551Y-79694430D02*
X110647694Y-79765859D01*
X110361980Y-79765859D01*
X110219123Y-79694430D01*
X110147694Y-79551573D01*
X110147694Y-78980145D01*
X110219123Y-78837288D01*
X110361980Y-78765859D01*
X110647694Y-78765859D01*
X110790551Y-78837288D01*
X110861980Y-78980145D01*
X110861980Y-79123002D01*
X110147694Y-79265859D01*
X111504837Y-79623002D02*
X111576265Y-79694430D01*
X111504837Y-79765859D01*
X111433408Y-79694430D01*
X111504837Y-79623002D01*
X111504837Y-79765859D01*
X112861980Y-79694430D02*
X112719123Y-79765859D01*
X112433408Y-79765859D01*
X112290551Y-79694430D01*
X112219123Y-79623002D01*
X112147694Y-79480145D01*
X112147694Y-79051573D01*
X112219123Y-78908716D01*
X112290551Y-78837288D01*
X112433408Y-78765859D01*
X112719123Y-78765859D01*
X112861980Y-78837288D01*
X113719123Y-79765859D02*
X113576265Y-79694430D01*
X113504837Y-79623002D01*
X113433408Y-79480145D01*
X113433408Y-79051573D01*
X113504837Y-78908716D01*
X113576265Y-78837288D01*
X113719123Y-78765859D01*
X113933408Y-78765859D01*
X114076265Y-78837288D01*
X114147694Y-78908716D01*
X114219123Y-79051573D01*
X114219123Y-79480145D01*
X114147694Y-79623002D01*
X114076265Y-79694430D01*
X113933408Y-79765859D01*
X113719123Y-79765859D01*
X114861980Y-79765859D02*
X114861980Y-78765859D01*
X114861980Y-78908716D02*
X114933408Y-78837288D01*
X115076265Y-78765859D01*
X115290551Y-78765859D01*
X115433408Y-78837288D01*
X115504837Y-78980145D01*
X115504837Y-79765859D01*
X115504837Y-78980145D02*
X115576265Y-78837288D01*
X115719123Y-78765859D01*
X115933408Y-78765859D01*
X116076265Y-78837288D01*
X116147694Y-78980145D01*
X116147694Y-79765859D01*
X97076265Y-80823716D02*
X97147694Y-80752288D01*
X97290551Y-80680859D01*
X97647694Y-80680859D01*
X97790551Y-80752288D01*
X97861980Y-80823716D01*
X97933408Y-80966573D01*
X97933408Y-81109430D01*
X97861980Y-81323716D01*
X97004837Y-82180859D01*
X97933408Y-82180859D01*
X98861980Y-80680859D02*
X99004837Y-80680859D01*
X99147694Y-80752288D01*
X99219123Y-80823716D01*
X99290551Y-80966573D01*
X99361980Y-81252288D01*
X99361980Y-81609430D01*
X99290551Y-81895145D01*
X99219123Y-82038002D01*
X99147694Y-82109430D01*
X99004837Y-82180859D01*
X98861980Y-82180859D01*
X98719123Y-82109430D01*
X98647694Y-82038002D01*
X98576265Y-81895145D01*
X98504837Y-81609430D01*
X98504837Y-81252288D01*
X98576265Y-80966573D01*
X98647694Y-80823716D01*
X98719123Y-80752288D01*
X98861980Y-80680859D01*
X99933408Y-80823716D02*
X100004837Y-80752288D01*
X100147694Y-80680859D01*
X100504837Y-80680859D01*
X100647694Y-80752288D01*
X100719123Y-80823716D01*
X100790551Y-80966573D01*
X100790551Y-81109430D01*
X100719123Y-81323716D01*
X99861980Y-82180859D01*
X100790551Y-82180859D01*
X101361980Y-80823716D02*
X101433408Y-80752288D01*
X101576265Y-80680859D01*
X101933408Y-80680859D01*
X102076265Y-80752288D01*
X102147694Y-80823716D01*
X102219123Y-80966573D01*
X102219123Y-81109430D01*
X102147694Y-81323716D01*
X101290551Y-82180859D01*
X102219123Y-82180859D01*
D11*
%TO.C,C7*%
X117689333Y-82327142D02*
X117641714Y-82374761D01*
X117498857Y-82422380D01*
X117403619Y-82422380D01*
X117260761Y-82374761D01*
X117165523Y-82279523D01*
X117117904Y-82184285D01*
X117070285Y-81993809D01*
X117070285Y-81850952D01*
X117117904Y-81660476D01*
X117165523Y-81565238D01*
X117260761Y-81470000D01*
X117403619Y-81422380D01*
X117498857Y-81422380D01*
X117641714Y-81470000D01*
X117689333Y-81517619D01*
X118022666Y-81422380D02*
X118689333Y-81422380D01*
X118260761Y-82422380D01*
%TO.C,R8*%
X142955304Y-86294096D02*
X142621971Y-85817906D01*
X142383875Y-86294096D02*
X142383875Y-85294096D01*
X142764828Y-85294096D01*
X142860066Y-85341716D01*
X142907685Y-85389335D01*
X142955304Y-85484573D01*
X142955304Y-85627430D01*
X142907685Y-85722668D01*
X142860066Y-85770287D01*
X142764828Y-85817906D01*
X142383875Y-85817906D01*
X143526732Y-85722668D02*
X143431494Y-85675049D01*
X143383875Y-85627430D01*
X143336256Y-85532192D01*
X143336256Y-85484573D01*
X143383875Y-85389335D01*
X143431494Y-85341716D01*
X143526732Y-85294096D01*
X143717209Y-85294096D01*
X143812447Y-85341716D01*
X143860066Y-85389335D01*
X143907685Y-85484573D01*
X143907685Y-85532192D01*
X143860066Y-85627430D01*
X143812447Y-85675049D01*
X143717209Y-85722668D01*
X143526732Y-85722668D01*
X143431494Y-85770287D01*
X143383875Y-85817906D01*
X143336256Y-85913144D01*
X143336256Y-86103620D01*
X143383875Y-86198858D01*
X143431494Y-86246477D01*
X143526732Y-86294096D01*
X143717209Y-86294096D01*
X143812447Y-86246477D01*
X143860066Y-86198858D01*
X143907685Y-86103620D01*
X143907685Y-85913144D01*
X143860066Y-85817906D01*
X143812447Y-85770287D01*
X143717209Y-85722668D01*
%TO.C,R6*%
X96894265Y-83919105D02*
X96560932Y-83442915D01*
X96322836Y-83919105D02*
X96322836Y-82919105D01*
X96703789Y-82919105D01*
X96799027Y-82966725D01*
X96846646Y-83014344D01*
X96894265Y-83109582D01*
X96894265Y-83252439D01*
X96846646Y-83347677D01*
X96799027Y-83395296D01*
X96703789Y-83442915D01*
X96322836Y-83442915D01*
X97751408Y-82919105D02*
X97560932Y-82919105D01*
X97465693Y-82966725D01*
X97418074Y-83014344D01*
X97322836Y-83157201D01*
X97275217Y-83347677D01*
X97275217Y-83728629D01*
X97322836Y-83823867D01*
X97370455Y-83871486D01*
X97465693Y-83919105D01*
X97656170Y-83919105D01*
X97751408Y-83871486D01*
X97799027Y-83823867D01*
X97846646Y-83728629D01*
X97846646Y-83490534D01*
X97799027Y-83395296D01*
X97751408Y-83347677D01*
X97656170Y-83300058D01*
X97465693Y-83300058D01*
X97370455Y-83347677D01*
X97322836Y-83395296D01*
X97275217Y-83490534D01*
%TO.C,U1*%
X65317496Y-80729735D02*
X65317496Y-81539259D01*
X65365115Y-81634497D01*
X65412734Y-81682116D01*
X65507972Y-81729735D01*
X65698448Y-81729735D01*
X65793686Y-81682116D01*
X65841305Y-81634497D01*
X65888924Y-81539259D01*
X65888924Y-80729735D01*
X66888924Y-81729735D02*
X66317496Y-81729735D01*
X66603210Y-81729735D02*
X66603210Y-80729735D01*
X66507972Y-80872593D01*
X66412734Y-80967831D01*
X66317496Y-81015450D01*
%TO.C,C6*%
X93340190Y-82051832D02*
X93292571Y-82099451D01*
X93149714Y-82147070D01*
X93054476Y-82147070D01*
X92911618Y-82099451D01*
X92816380Y-82004213D01*
X92768761Y-81908975D01*
X92721142Y-81718499D01*
X92721142Y-81575642D01*
X92768761Y-81385166D01*
X92816380Y-81289928D01*
X92911618Y-81194690D01*
X93054476Y-81147070D01*
X93149714Y-81147070D01*
X93292571Y-81194690D01*
X93340190Y-81242309D01*
X94197333Y-81147070D02*
X94006857Y-81147070D01*
X93911618Y-81194690D01*
X93863999Y-81242309D01*
X93768761Y-81385166D01*
X93721142Y-81575642D01*
X93721142Y-81956594D01*
X93768761Y-82051832D01*
X93816380Y-82099451D01*
X93911618Y-82147070D01*
X94102095Y-82147070D01*
X94197333Y-82099451D01*
X94244952Y-82051832D01*
X94292571Y-81956594D01*
X94292571Y-81718499D01*
X94244952Y-81623261D01*
X94197333Y-81575642D01*
X94102095Y-81528023D01*
X93911618Y-81528023D01*
X93816380Y-81575642D01*
X93768761Y-81623261D01*
X93721142Y-81718499D01*
%TO.C,C3*%
X99208206Y-87191825D02*
X99255825Y-87239444D01*
X99303444Y-87382301D01*
X99303444Y-87477539D01*
X99255825Y-87620397D01*
X99160587Y-87715635D01*
X99065349Y-87763254D01*
X98874873Y-87810873D01*
X98732016Y-87810873D01*
X98541540Y-87763254D01*
X98446302Y-87715635D01*
X98351064Y-87620397D01*
X98303444Y-87477539D01*
X98303444Y-87382301D01*
X98351064Y-87239444D01*
X98398683Y-87191825D01*
X98303444Y-86858492D02*
X98303444Y-86239444D01*
X98684397Y-86572778D01*
X98684397Y-86429920D01*
X98732016Y-86334682D01*
X98779635Y-86287063D01*
X98874873Y-86239444D01*
X99112968Y-86239444D01*
X99208206Y-86287063D01*
X99255825Y-86334682D01*
X99303444Y-86429920D01*
X99303444Y-86715635D01*
X99255825Y-86810873D01*
X99208206Y-86858492D01*
%TO.C,R7*%
X120970049Y-84949634D02*
X120636716Y-84473444D01*
X120398620Y-84949634D02*
X120398620Y-83949634D01*
X120779573Y-83949634D01*
X120874811Y-83997254D01*
X120922430Y-84044873D01*
X120970049Y-84140111D01*
X120970049Y-84282968D01*
X120922430Y-84378206D01*
X120874811Y-84425825D01*
X120779573Y-84473444D01*
X120398620Y-84473444D01*
X121303382Y-83949634D02*
X121970049Y-83949634D01*
X121541477Y-84949634D01*
%TO.C,C5*%
X73253242Y-82116502D02*
X73205623Y-82164121D01*
X73062766Y-82211740D01*
X72967528Y-82211740D01*
X72824670Y-82164121D01*
X72729432Y-82068883D01*
X72681813Y-81973645D01*
X72634194Y-81783169D01*
X72634194Y-81640312D01*
X72681813Y-81449836D01*
X72729432Y-81354598D01*
X72824670Y-81259360D01*
X72967528Y-81211740D01*
X73062766Y-81211740D01*
X73205623Y-81259360D01*
X73253242Y-81306979D01*
X74158004Y-81211740D02*
X73681813Y-81211740D01*
X73634194Y-81687931D01*
X73681813Y-81640312D01*
X73777051Y-81592693D01*
X74015147Y-81592693D01*
X74110385Y-81640312D01*
X74158004Y-81687931D01*
X74205623Y-81783169D01*
X74205623Y-82021264D01*
X74158004Y-82116502D01*
X74110385Y-82164121D01*
X74015147Y-82211740D01*
X73777051Y-82211740D01*
X73681813Y-82164121D01*
X73634194Y-82116502D01*
%TO.C,C1*%
X58174290Y-87807008D02*
X58221909Y-87854627D01*
X58269528Y-87997484D01*
X58269528Y-88092722D01*
X58221909Y-88235580D01*
X58126671Y-88330818D01*
X58031433Y-88378437D01*
X57840957Y-88426056D01*
X57698100Y-88426056D01*
X57507624Y-88378437D01*
X57412386Y-88330818D01*
X57317148Y-88235580D01*
X57269528Y-88092722D01*
X57269528Y-87997484D01*
X57317148Y-87854627D01*
X57364767Y-87807008D01*
X58269528Y-86854627D02*
X58269528Y-87426056D01*
X58269528Y-87140342D02*
X57269528Y-87140342D01*
X57412386Y-87235580D01*
X57507624Y-87330818D01*
X57555243Y-87426056D01*
%TO.C,C4*%
X123290148Y-87852354D02*
X123337767Y-87899973D01*
X123385386Y-88042830D01*
X123385386Y-88138068D01*
X123337767Y-88280926D01*
X123242529Y-88376164D01*
X123147291Y-88423783D01*
X122956815Y-88471402D01*
X122813958Y-88471402D01*
X122623482Y-88423783D01*
X122528244Y-88376164D01*
X122433006Y-88280926D01*
X122385386Y-88138068D01*
X122385386Y-88042830D01*
X122433006Y-87899973D01*
X122480625Y-87852354D01*
X122718720Y-86995211D02*
X123385386Y-86995211D01*
X122337767Y-87233307D02*
X123052053Y-87471402D01*
X123052053Y-86852354D01*
%TO.C,R9*%
X105345933Y-60489106D02*
X105012600Y-60012916D01*
X104774504Y-60489106D02*
X104774504Y-59489106D01*
X105155457Y-59489106D01*
X105250695Y-59536726D01*
X105298314Y-59584345D01*
X105345933Y-59679583D01*
X105345933Y-59822440D01*
X105298314Y-59917678D01*
X105250695Y-59965297D01*
X105155457Y-60012916D01*
X104774504Y-60012916D01*
X105822123Y-60489106D02*
X106012600Y-60489106D01*
X106107838Y-60441487D01*
X106155457Y-60393868D01*
X106250695Y-60251011D01*
X106298314Y-60060535D01*
X106298314Y-59679583D01*
X106250695Y-59584345D01*
X106203076Y-59536726D01*
X106107838Y-59489106D01*
X105917361Y-59489106D01*
X105822123Y-59536726D01*
X105774504Y-59584345D01*
X105726885Y-59679583D01*
X105726885Y-59917678D01*
X105774504Y-60012916D01*
X105822123Y-60060535D01*
X105917361Y-60108154D01*
X106107838Y-60108154D01*
X106203076Y-60060535D01*
X106250695Y-60012916D01*
X106298314Y-59917678D01*
%TO.C,D4*%
X138308210Y-71745004D02*
X137308210Y-71745004D01*
X137308210Y-71506909D01*
X137355830Y-71364051D01*
X137451068Y-71268813D01*
X137546306Y-71221194D01*
X137736782Y-71173575D01*
X137879639Y-71173575D01*
X138070115Y-71221194D01*
X138165353Y-71268813D01*
X138260591Y-71364051D01*
X138308210Y-71506909D01*
X138308210Y-71745004D01*
X137641544Y-70316432D02*
X138308210Y-70316432D01*
X137260591Y-70554528D02*
X137974877Y-70792623D01*
X137974877Y-70173575D01*
%TO.C,Q1*%
X59061415Y-62183809D02*
X58966177Y-62136190D01*
X58870939Y-62040951D01*
X58728082Y-61898094D01*
X58632844Y-61850475D01*
X58537606Y-61850475D01*
X58585225Y-62088570D02*
X58489987Y-62040951D01*
X58394749Y-61945713D01*
X58347130Y-61755237D01*
X58347130Y-61421904D01*
X58394749Y-61231428D01*
X58489987Y-61136190D01*
X58585225Y-61088570D01*
X58775701Y-61088570D01*
X58870939Y-61136190D01*
X58966177Y-61231428D01*
X59013796Y-61421904D01*
X59013796Y-61755237D01*
X58966177Y-61945713D01*
X58870939Y-62040951D01*
X58775701Y-62088570D01*
X58585225Y-62088570D01*
X59966177Y-62088570D02*
X59394749Y-62088570D01*
X59680463Y-62088570D02*
X59680463Y-61088570D01*
X59585225Y-61231428D01*
X59489987Y-61326666D01*
X59394749Y-61374285D01*
%TO.C,U2*%
X85420375Y-80680243D02*
X85420375Y-81489767D01*
X85467994Y-81585005D01*
X85515613Y-81632624D01*
X85610851Y-81680243D01*
X85801327Y-81680243D01*
X85896565Y-81632624D01*
X85944184Y-81585005D01*
X85991803Y-81489767D01*
X85991803Y-80680243D01*
X86420375Y-80775482D02*
X86467994Y-80727863D01*
X86563232Y-80680243D01*
X86801327Y-80680243D01*
X86896565Y-80727863D01*
X86944184Y-80775482D01*
X86991803Y-80870720D01*
X86991803Y-80965958D01*
X86944184Y-81108815D01*
X86372756Y-81680243D01*
X86991803Y-81680243D01*
%TO.C,U4*%
X132056643Y-80694147D02*
X132056643Y-81503671D01*
X132104262Y-81598909D01*
X132151881Y-81646528D01*
X132247119Y-81694147D01*
X132437595Y-81694147D01*
X132532833Y-81646528D01*
X132580452Y-81598909D01*
X132628071Y-81503671D01*
X132628071Y-80694147D01*
X133532833Y-81027481D02*
X133532833Y-81694147D01*
X133294738Y-80646528D02*
X133056643Y-81360814D01*
X133675690Y-81360814D01*
%TO.C,R4*%
X134065151Y-97470262D02*
X133731818Y-96994072D01*
X133493722Y-97470262D02*
X133493722Y-96470262D01*
X133874675Y-96470262D01*
X133969913Y-96517882D01*
X134017532Y-96565501D01*
X134065151Y-96660739D01*
X134065151Y-96803596D01*
X134017532Y-96898834D01*
X133969913Y-96946453D01*
X133874675Y-96994072D01*
X133493722Y-96994072D01*
X134922294Y-96803596D02*
X134922294Y-97470262D01*
X134684198Y-96422643D02*
X134446103Y-97136929D01*
X135065151Y-97136929D01*
%TO.C,D3*%
X108198852Y-71828705D02*
X107198852Y-71828705D01*
X107198852Y-71590610D01*
X107246472Y-71447752D01*
X107341710Y-71352514D01*
X107436948Y-71304895D01*
X107627424Y-71257276D01*
X107770281Y-71257276D01*
X107960757Y-71304895D01*
X108055995Y-71352514D01*
X108151233Y-71447752D01*
X108198852Y-71590610D01*
X108198852Y-71828705D01*
X107198852Y-70923943D02*
X107198852Y-70304895D01*
X107579805Y-70638229D01*
X107579805Y-70495371D01*
X107627424Y-70400133D01*
X107675043Y-70352514D01*
X107770281Y-70304895D01*
X108008376Y-70304895D01*
X108103614Y-70352514D01*
X108151233Y-70400133D01*
X108198852Y-70495371D01*
X108198852Y-70781086D01*
X108151233Y-70876324D01*
X108103614Y-70923943D01*
%TO.C,C2*%
X76929095Y-87888813D02*
X76976714Y-87936432D01*
X77024333Y-88079289D01*
X77024333Y-88174527D01*
X76976714Y-88317385D01*
X76881476Y-88412623D01*
X76786238Y-88460242D01*
X76595762Y-88507861D01*
X76452905Y-88507861D01*
X76262429Y-88460242D01*
X76167191Y-88412623D01*
X76071953Y-88317385D01*
X76024333Y-88174527D01*
X76024333Y-88079289D01*
X76071953Y-87936432D01*
X76119572Y-87888813D01*
X76119572Y-87507861D02*
X76071953Y-87460242D01*
X76024333Y-87365004D01*
X76024333Y-87126908D01*
X76071953Y-87031670D01*
X76119572Y-86984051D01*
X76214810Y-86936432D01*
X76310048Y-86936432D01*
X76452905Y-86984051D01*
X77024333Y-87555480D01*
X77024333Y-86936432D01*
%TO.C,R5*%
X75620321Y-86118835D02*
X75286988Y-85642645D01*
X75048892Y-86118835D02*
X75048892Y-85118835D01*
X75429845Y-85118835D01*
X75525083Y-85166455D01*
X75572702Y-85214074D01*
X75620321Y-85309312D01*
X75620321Y-85452169D01*
X75572702Y-85547407D01*
X75525083Y-85595026D01*
X75429845Y-85642645D01*
X75048892Y-85642645D01*
X76525083Y-85118835D02*
X76048892Y-85118835D01*
X76001273Y-85595026D01*
X76048892Y-85547407D01*
X76144130Y-85499788D01*
X76382226Y-85499788D01*
X76477464Y-85547407D01*
X76525083Y-85595026D01*
X76572702Y-85690264D01*
X76572702Y-85928359D01*
X76525083Y-86023597D01*
X76477464Y-86071216D01*
X76382226Y-86118835D01*
X76144130Y-86118835D01*
X76048892Y-86071216D01*
X76001273Y-86023597D01*
%TO.C,Q5*%
X96230113Y-68469757D02*
X96134875Y-68422138D01*
X96039637Y-68326899D01*
X95896780Y-68184042D01*
X95801542Y-68136423D01*
X95706304Y-68136423D01*
X95753923Y-68374518D02*
X95658685Y-68326899D01*
X95563447Y-68231661D01*
X95515828Y-68041185D01*
X95515828Y-67707852D01*
X95563447Y-67517376D01*
X95658685Y-67422138D01*
X95753923Y-67374518D01*
X95944399Y-67374518D01*
X96039637Y-67422138D01*
X96134875Y-67517376D01*
X96182494Y-67707852D01*
X96182494Y-68041185D01*
X96134875Y-68231661D01*
X96039637Y-68326899D01*
X95944399Y-68374518D01*
X95753923Y-68374518D01*
X97087256Y-67374518D02*
X96611066Y-67374518D01*
X96563447Y-67850709D01*
X96611066Y-67803090D01*
X96706304Y-67755471D01*
X96944399Y-67755471D01*
X97039637Y-67803090D01*
X97087256Y-67850709D01*
X97134875Y-67945947D01*
X97134875Y-68184042D01*
X97087256Y-68279280D01*
X97039637Y-68326899D01*
X96944399Y-68374518D01*
X96706304Y-68374518D01*
X96611066Y-68326899D01*
X96563447Y-68279280D01*
%TO.C,D1*%
X56768021Y-72230560D02*
X55768021Y-72230560D01*
X55768021Y-71992465D01*
X55815641Y-71849607D01*
X55910879Y-71754369D01*
X56006117Y-71706750D01*
X56196593Y-71659131D01*
X56339450Y-71659131D01*
X56529926Y-71706750D01*
X56625164Y-71754369D01*
X56720402Y-71849607D01*
X56768021Y-71992465D01*
X56768021Y-72230560D01*
X56768021Y-70706750D02*
X56768021Y-71278179D01*
X56768021Y-70992465D02*
X55768021Y-70992465D01*
X55910879Y-71087703D01*
X56006117Y-71182941D01*
X56053736Y-71278179D01*
%TO.C,J1*%
X73900193Y-60350546D02*
X73900193Y-61064832D01*
X73852574Y-61207689D01*
X73757336Y-61302927D01*
X73614479Y-61350546D01*
X73519241Y-61350546D01*
X74900193Y-61350546D02*
X74328765Y-61350546D01*
X74614479Y-61350546D02*
X74614479Y-60350546D01*
X74519241Y-60493404D01*
X74424003Y-60588642D01*
X74328765Y-60636261D01*
%TO.C,R2*%
X86031748Y-97247090D02*
X85698415Y-96770900D01*
X85460319Y-97247090D02*
X85460319Y-96247090D01*
X85841272Y-96247090D01*
X85936510Y-96294710D01*
X85984129Y-96342329D01*
X86031748Y-96437567D01*
X86031748Y-96580424D01*
X85984129Y-96675662D01*
X85936510Y-96723281D01*
X85841272Y-96770900D01*
X85460319Y-96770900D01*
X86412700Y-96342329D02*
X86460319Y-96294710D01*
X86555557Y-96247090D01*
X86793653Y-96247090D01*
X86888891Y-96294710D01*
X86936510Y-96342329D01*
X86984129Y-96437567D01*
X86984129Y-96532805D01*
X86936510Y-96675662D01*
X86365081Y-97247090D01*
X86984129Y-97247090D01*
%TO.C,R1*%
X66360337Y-97247090D02*
X66027004Y-96770900D01*
X65788908Y-97247090D02*
X65788908Y-96247090D01*
X66169861Y-96247090D01*
X66265099Y-96294710D01*
X66312718Y-96342329D01*
X66360337Y-96437567D01*
X66360337Y-96580424D01*
X66312718Y-96675662D01*
X66265099Y-96723281D01*
X66169861Y-96770900D01*
X65788908Y-96770900D01*
X67312718Y-97247090D02*
X66741289Y-97247090D01*
X67027004Y-97247090D02*
X67027004Y-96247090D01*
X66931765Y-96389948D01*
X66836527Y-96485186D01*
X66741289Y-96532805D01*
%TO.C,D2*%
X86639337Y-71603476D02*
X85639337Y-71603476D01*
X85639337Y-71365381D01*
X85686957Y-71222523D01*
X85782195Y-71127285D01*
X85877433Y-71079666D01*
X86067909Y-71032047D01*
X86210766Y-71032047D01*
X86401242Y-71079666D01*
X86496480Y-71127285D01*
X86591718Y-71222523D01*
X86639337Y-71365381D01*
X86639337Y-71603476D01*
X85734576Y-70651095D02*
X85686957Y-70603476D01*
X85639337Y-70508238D01*
X85639337Y-70270142D01*
X85686957Y-70174904D01*
X85734576Y-70127285D01*
X85829814Y-70079666D01*
X85925052Y-70079666D01*
X86067909Y-70127285D01*
X86639337Y-70698714D01*
X86639337Y-70079666D01*
%TO.C,J2*%
X125567090Y-60943453D02*
X125567090Y-61657739D01*
X125519471Y-61800596D01*
X125424233Y-61895834D01*
X125281376Y-61943453D01*
X125186138Y-61943453D01*
X125995662Y-61038692D02*
X126043281Y-60991073D01*
X126138519Y-60943453D01*
X126376614Y-60943453D01*
X126471852Y-60991073D01*
X126519471Y-61038692D01*
X126567090Y-61133930D01*
X126567090Y-61229168D01*
X126519471Y-61372025D01*
X125948043Y-61943453D01*
X126567090Y-61943453D01*
%TO.C,U3*%
X109764344Y-80877840D02*
X109764344Y-81687364D01*
X109811963Y-81782602D01*
X109859582Y-81830221D01*
X109954820Y-81877840D01*
X110145296Y-81877840D01*
X110240534Y-81830221D01*
X110288153Y-81782602D01*
X110335772Y-81687364D01*
X110335772Y-80877840D01*
X110716725Y-80877840D02*
X111335772Y-80877840D01*
X111002439Y-81258793D01*
X111145296Y-81258793D01*
X111240534Y-81306412D01*
X111288153Y-81354031D01*
X111335772Y-81449269D01*
X111335772Y-81687364D01*
X111288153Y-81782602D01*
X111240534Y-81830221D01*
X111145296Y-81877840D01*
X110859582Y-81877840D01*
X110764344Y-81830221D01*
X110716725Y-81782602D01*
%TO.C,D5*%
X90844850Y-59782395D02*
X90844850Y-58782395D01*
X91082946Y-58782395D01*
X91225803Y-58830015D01*
X91321041Y-58925253D01*
X91368660Y-59020491D01*
X91416279Y-59210967D01*
X91416279Y-59353824D01*
X91368660Y-59544300D01*
X91321041Y-59639538D01*
X91225803Y-59734776D01*
X91082946Y-59782395D01*
X90844850Y-59782395D01*
X92321041Y-58782395D02*
X91844850Y-58782395D01*
X91797231Y-59258586D01*
X91844850Y-59210967D01*
X91940088Y-59163348D01*
X92178184Y-59163348D01*
X92273422Y-59210967D01*
X92321041Y-59258586D01*
X92368660Y-59353824D01*
X92368660Y-59591919D01*
X92321041Y-59687157D01*
X92273422Y-59734776D01*
X92178184Y-59782395D01*
X91940088Y-59782395D01*
X91844850Y-59734776D01*
X91797231Y-59687157D01*
%TO.C,Q4*%
X140724542Y-61879049D02*
X140629304Y-61831430D01*
X140534066Y-61736191D01*
X140391209Y-61593334D01*
X140295971Y-61545715D01*
X140200733Y-61545715D01*
X140248352Y-61783810D02*
X140153114Y-61736191D01*
X140057876Y-61640953D01*
X140010257Y-61450477D01*
X140010257Y-61117144D01*
X140057876Y-60926668D01*
X140153114Y-60831430D01*
X140248352Y-60783810D01*
X140438828Y-60783810D01*
X140534066Y-60831430D01*
X140629304Y-60926668D01*
X140676923Y-61117144D01*
X140676923Y-61450477D01*
X140629304Y-61640953D01*
X140534066Y-61736191D01*
X140438828Y-61783810D01*
X140248352Y-61783810D01*
X141534066Y-61117144D02*
X141534066Y-61783810D01*
X141295971Y-60736191D02*
X141057876Y-61450477D01*
X141676923Y-61450477D01*
%TO.C,C8*%
X140041333Y-82327142D02*
X139993714Y-82374761D01*
X139850857Y-82422380D01*
X139755619Y-82422380D01*
X139612761Y-82374761D01*
X139517523Y-82279523D01*
X139469904Y-82184285D01*
X139422285Y-81993809D01*
X139422285Y-81850952D01*
X139469904Y-81660476D01*
X139517523Y-81565238D01*
X139612761Y-81470000D01*
X139755619Y-81422380D01*
X139850857Y-81422380D01*
X139993714Y-81470000D01*
X140041333Y-81517619D01*
X140612761Y-81850952D02*
X140517523Y-81803333D01*
X140469904Y-81755714D01*
X140422285Y-81660476D01*
X140422285Y-81612857D01*
X140469904Y-81517619D01*
X140517523Y-81470000D01*
X140612761Y-81422380D01*
X140803238Y-81422380D01*
X140898476Y-81470000D01*
X140946095Y-81517619D01*
X140993714Y-81612857D01*
X140993714Y-81660476D01*
X140946095Y-81755714D01*
X140898476Y-81803333D01*
X140803238Y-81850952D01*
X140612761Y-81850952D01*
X140517523Y-81898571D01*
X140469904Y-81946190D01*
X140422285Y-82041428D01*
X140422285Y-82231904D01*
X140469904Y-82327142D01*
X140517523Y-82374761D01*
X140612761Y-82422380D01*
X140803238Y-82422380D01*
X140898476Y-82374761D01*
X140946095Y-82327142D01*
X140993714Y-82231904D01*
X140993714Y-82041428D01*
X140946095Y-81946190D01*
X140898476Y-81898571D01*
X140803238Y-81850952D01*
%TO.C,Q3*%
X110656373Y-61872867D02*
X110561135Y-61825248D01*
X110465897Y-61730009D01*
X110323040Y-61587152D01*
X110227802Y-61539533D01*
X110132564Y-61539533D01*
X110180183Y-61777628D02*
X110084945Y-61730009D01*
X109989707Y-61634771D01*
X109942088Y-61444295D01*
X109942088Y-61110962D01*
X109989707Y-60920486D01*
X110084945Y-60825248D01*
X110180183Y-60777628D01*
X110370659Y-60777628D01*
X110465897Y-60825248D01*
X110561135Y-60920486D01*
X110608754Y-61110962D01*
X110608754Y-61444295D01*
X110561135Y-61634771D01*
X110465897Y-61730009D01*
X110370659Y-61777628D01*
X110180183Y-61777628D01*
X110942088Y-60777628D02*
X111561135Y-60777628D01*
X111227802Y-61158581D01*
X111370659Y-61158581D01*
X111465897Y-61206200D01*
X111513516Y-61253819D01*
X111561135Y-61349057D01*
X111561135Y-61587152D01*
X111513516Y-61682390D01*
X111465897Y-61730009D01*
X111370659Y-61777628D01*
X111084945Y-61777628D01*
X110989707Y-61730009D01*
X110942088Y-61682390D01*
%TO.C,R3*%
X110520502Y-97553952D02*
X110187169Y-97077762D01*
X109949073Y-97553952D02*
X109949073Y-96553952D01*
X110330026Y-96553952D01*
X110425264Y-96601572D01*
X110472883Y-96649191D01*
X110520502Y-96744429D01*
X110520502Y-96887286D01*
X110472883Y-96982524D01*
X110425264Y-97030143D01*
X110330026Y-97077762D01*
X109949073Y-97077762D01*
X110853835Y-96553952D02*
X111472883Y-96553952D01*
X111139549Y-96934905D01*
X111282407Y-96934905D01*
X111377645Y-96982524D01*
X111425264Y-97030143D01*
X111472883Y-97125381D01*
X111472883Y-97363476D01*
X111425264Y-97458714D01*
X111377645Y-97506333D01*
X111282407Y-97553952D01*
X110996692Y-97553952D01*
X110901454Y-97506333D01*
X110853835Y-97458714D01*
%TO.C,Q2*%
X89097900Y-61821982D02*
X89002662Y-61774363D01*
X88907424Y-61679124D01*
X88764567Y-61536267D01*
X88669329Y-61488648D01*
X88574091Y-61488648D01*
X88621710Y-61726743D02*
X88526472Y-61679124D01*
X88431234Y-61583886D01*
X88383615Y-61393410D01*
X88383615Y-61060077D01*
X88431234Y-60869601D01*
X88526472Y-60774363D01*
X88621710Y-60726743D01*
X88812186Y-60726743D01*
X88907424Y-60774363D01*
X89002662Y-60869601D01*
X89050281Y-61060077D01*
X89050281Y-61393410D01*
X89002662Y-61583886D01*
X88907424Y-61679124D01*
X88812186Y-61726743D01*
X88621710Y-61726743D01*
X89431234Y-60821982D02*
X89478853Y-60774363D01*
X89574091Y-60726743D01*
X89812186Y-60726743D01*
X89907424Y-60774363D01*
X89955043Y-60821982D01*
X90002662Y-60917220D01*
X90002662Y-61012458D01*
X89955043Y-61155315D01*
X89383615Y-61726743D01*
X90002662Y-61726743D01*
D12*
%TO.C,C7*%
X117144748Y-84730000D02*
X118567252Y-84730000D01*
X117144748Y-82910000D02*
X118567252Y-82910000D01*
%TO.C,R8*%
X139980936Y-86936715D02*
X140435064Y-86936715D01*
X139980936Y-85466715D02*
X140435064Y-85466715D01*
%TO.C,R6*%
X92687001Y-86769414D02*
X93141129Y-86769414D01*
X92687001Y-85299414D02*
X93141129Y-85299414D01*
%TO.C,U1*%
X68729401Y-92557355D02*
X68729401Y-82277355D01*
X68729401Y-82277355D02*
X67079401Y-82277355D01*
X63429401Y-92557355D02*
X68729401Y-92557355D01*
X63429401Y-82277355D02*
X63429401Y-92557355D01*
X65079401Y-82277355D02*
X63429401Y-82277355D01*
X65079401Y-82277355D02*
G75*
G03*
X67079401Y-82277355I1000000J0D01*
G01*
%TO.C,C6*%
X92795605Y-82634690D02*
X94218109Y-82634690D01*
X92795605Y-84454690D02*
X94218109Y-84454690D01*
%TO.C,C3*%
X102664455Y-88319857D02*
X102664455Y-86897353D01*
X104484455Y-88319857D02*
X104484455Y-86897353D01*
%TO.C,R7*%
X117120936Y-85625000D02*
X117575064Y-85625000D01*
X117120936Y-87095000D02*
X117575064Y-87095000D01*
%TO.C,C5*%
X72708657Y-82699360D02*
X74131161Y-82699360D01*
X72708657Y-84519360D02*
X74131161Y-84519360D01*
%TO.C,C1*%
X60577148Y-88351594D02*
X60577148Y-86929090D01*
X58757148Y-88351594D02*
X58757148Y-86929090D01*
%TO.C,C4*%
X125693006Y-88396940D02*
X125693006Y-86974436D01*
X123873006Y-88396940D02*
X123873006Y-86974436D01*
%TO.C,R9*%
X102021646Y-59250040D02*
X102475774Y-59250040D01*
X102021646Y-60720040D02*
X102475774Y-60720040D01*
%TO.C,D4*%
X138705830Y-74556909D02*
X143005830Y-74556909D01*
X143005830Y-74556909D02*
X143005830Y-68856909D01*
X138705830Y-74556909D02*
X138705830Y-68856909D01*
%TO.C,Q1*%
X61007654Y-62636190D02*
X61007654Y-64146190D01*
X57306654Y-62636190D02*
X57306654Y-64146190D01*
X54036654Y-62636190D02*
X64276654Y-62636190D01*
X54036654Y-62636190D02*
X54036654Y-67277190D01*
X54036654Y-67277190D02*
X64276654Y-67277190D01*
X64276654Y-62636190D02*
X64276654Y-67277190D01*
X54036654Y-64146190D02*
X64276654Y-64146190D01*
%TO.C,U2*%
X83532280Y-92507863D02*
X88832280Y-92507863D01*
X83532280Y-82227863D02*
X83532280Y-92507863D01*
X88832280Y-82227863D02*
X87182280Y-82227863D01*
X85182280Y-82227863D02*
X83532280Y-82227863D01*
X88832280Y-92507863D02*
X88832280Y-82227863D01*
X85182280Y-82227863D02*
G75*
G03*
X87182280Y-82227863I1000000J0D01*
G01*
%TO.C,U4*%
X135468548Y-92521767D02*
X135468548Y-82241767D01*
X130168548Y-92521767D02*
X135468548Y-92521767D01*
X131818548Y-82241767D02*
X130168548Y-82241767D01*
X130168548Y-82241767D02*
X130168548Y-92521767D01*
X135468548Y-82241767D02*
X133818548Y-82241767D01*
X131818548Y-82241767D02*
G75*
G03*
X133818548Y-82241767I1000000J0D01*
G01*
%TO.C,R4*%
X138247963Y-93096909D02*
X126107963Y-93096909D01*
X138357963Y-95466909D02*
X138247963Y-95466909D01*
X138247963Y-97836909D02*
X138247963Y-93096909D01*
X125997963Y-95466909D02*
X126107963Y-95466909D01*
X126107963Y-97836909D02*
X138247963Y-97836909D01*
X126107963Y-93096909D02*
X126107963Y-97836909D01*
%TO.C,D3*%
X112896472Y-74640610D02*
X112896472Y-68940610D01*
X108596472Y-74640610D02*
X108596472Y-68940610D01*
X108596472Y-74640610D02*
X112896472Y-74640610D01*
%TO.C,C2*%
X77563030Y-88379135D02*
X77563030Y-86956631D01*
X79383030Y-88379135D02*
X79383030Y-86956631D01*
%TO.C,R5*%
X72613227Y-85403603D02*
X73067355Y-85403603D01*
X72613227Y-86873603D02*
X73067355Y-86873603D01*
%TO.C,Q5*%
X94837963Y-66926490D02*
X105077963Y-66926490D01*
X105077963Y-62285490D02*
X105077963Y-66926490D01*
X101808963Y-62285490D02*
X101808963Y-63795490D01*
X94837963Y-62285490D02*
X94837963Y-66926490D01*
X94837963Y-62285490D02*
X105077963Y-62285490D01*
X94837963Y-63795490D02*
X105077963Y-63795490D01*
X98107963Y-62285490D02*
X98107963Y-63795490D01*
%TO.C,D1*%
X57165641Y-75042465D02*
X61465641Y-75042465D01*
X57165641Y-75042465D02*
X57165641Y-69342465D01*
X61465641Y-75042465D02*
X61465641Y-69342465D01*
%TO.C,J1*%
X71833527Y-74825678D02*
X71833527Y-76105678D01*
X83343527Y-71725678D02*
X83343527Y-58705678D01*
X82533527Y-71725678D02*
X83343527Y-71725678D01*
X83343527Y-58705678D02*
X74233527Y-58705678D01*
X76633527Y-74825678D02*
X76633527Y-76105678D01*
X65333527Y-73015678D02*
X65333527Y-72415678D01*
X67633527Y-74825678D02*
X67633527Y-76105678D01*
X65123527Y-58705678D02*
X74233527Y-58705678D01*
X69543527Y-71715678D02*
X70523527Y-71715678D01*
X68233527Y-74825678D02*
X68233527Y-76105678D01*
X73743527Y-71715678D02*
X74723527Y-71715678D01*
X77943527Y-71715678D02*
X78923527Y-71715678D01*
X80233527Y-74825678D02*
X80233527Y-76105678D01*
X65123527Y-71725678D02*
X65123527Y-58705678D01*
X65933527Y-72715678D02*
X65333527Y-73015678D01*
X80833527Y-74825678D02*
X80833527Y-76105678D01*
X72433527Y-74825678D02*
X72433527Y-76105678D01*
X76033527Y-74825678D02*
X76033527Y-76105678D01*
X65333527Y-72415678D02*
X65933527Y-72715678D01*
X65933527Y-71725678D02*
X65123527Y-71725678D01*
%TO.C,R2*%
X92378415Y-95229268D02*
X92268415Y-95229268D01*
X80128415Y-92859268D02*
X80128415Y-97599268D01*
X92268415Y-97599268D02*
X92268415Y-92859268D01*
X80018415Y-95229268D02*
X80128415Y-95229268D01*
X80128415Y-97599268D02*
X92268415Y-97599268D01*
X92268415Y-92859268D02*
X80128415Y-92859268D01*
%TO.C,R1*%
X72067270Y-92897591D02*
X59927270Y-92897591D01*
X59927270Y-97637591D02*
X72067270Y-97637591D01*
X59927270Y-92897591D02*
X59927270Y-97637591D01*
X72177270Y-95267591D02*
X72067270Y-95267591D01*
X59817270Y-95267591D02*
X59927270Y-95267591D01*
X72067270Y-97637591D02*
X72067270Y-92897591D01*
%TO.C,D2*%
X87036957Y-74415381D02*
X91336957Y-74415381D01*
X91336957Y-74415381D02*
X91336957Y-68715381D01*
X87036957Y-74415381D02*
X87036957Y-68715381D01*
%TO.C,J2*%
X125312787Y-72201648D02*
X126292787Y-72201648D01*
X123402787Y-75311648D02*
X123402787Y-76591648D01*
X132402787Y-75311648D02*
X132402787Y-76591648D01*
X117502787Y-73201648D02*
X116902787Y-73501648D01*
X134912787Y-59191648D02*
X125802787Y-59191648D01*
X116902787Y-72901648D02*
X117502787Y-73201648D01*
X127602787Y-75311648D02*
X127602787Y-76591648D01*
X117502787Y-72211648D02*
X116692787Y-72211648D01*
X124002787Y-75311648D02*
X124002787Y-76591648D01*
X131802787Y-75311648D02*
X131802787Y-76591648D01*
X129512787Y-72201648D02*
X130492787Y-72201648D01*
X119202787Y-75311648D02*
X119202787Y-76591648D01*
X121112787Y-72201648D02*
X122092787Y-72201648D01*
X116692787Y-72211648D02*
X116692787Y-59191648D01*
X134912787Y-72211648D02*
X134912787Y-59191648D01*
X116692787Y-59191648D02*
X125802787Y-59191648D01*
X134102787Y-72211648D02*
X134912787Y-72211648D01*
X128202787Y-75311648D02*
X128202787Y-76591648D01*
X119802787Y-75311648D02*
X119802787Y-76591648D01*
X116902787Y-73501648D02*
X116902787Y-72901648D01*
%TO.C,U3*%
X107876249Y-82425460D02*
X107876249Y-92705460D01*
X113176249Y-92705460D02*
X113176249Y-82425460D01*
X109526249Y-82425460D02*
X107876249Y-82425460D01*
X113176249Y-82425460D02*
X111526249Y-82425460D01*
X107876249Y-92705460D02*
X113176249Y-92705460D01*
X109526249Y-82425460D02*
G75*
G03*
X111526249Y-82425460I1000000J0D01*
G01*
%TO.C,D5*%
X99762548Y-61802419D02*
X94362548Y-61802419D01*
X99762548Y-61802419D02*
X99762548Y-58502419D01*
X99762548Y-58502419D02*
X94362548Y-58502419D01*
%TO.C,Q4*%
X135699781Y-63841430D02*
X145939781Y-63841430D01*
X138969781Y-62331430D02*
X138969781Y-63841430D01*
X145939781Y-62331430D02*
X145939781Y-66972430D01*
X142670781Y-62331430D02*
X142670781Y-63841430D01*
X135699781Y-66972430D02*
X145939781Y-66972430D01*
X135699781Y-62331430D02*
X135699781Y-66972430D01*
X135699781Y-62331430D02*
X145939781Y-62331430D01*
%TO.C,C8*%
X139496748Y-82910000D02*
X140919252Y-82910000D01*
X139496748Y-84730000D02*
X140919252Y-84730000D01*
%TO.C,Q3*%
X105631612Y-66966248D02*
X115871612Y-66966248D01*
X115871612Y-62325248D02*
X115871612Y-66966248D01*
X105631612Y-62325248D02*
X105631612Y-66966248D01*
X105631612Y-62325248D02*
X115871612Y-62325248D01*
X112602612Y-62325248D02*
X112602612Y-63835248D01*
X108901612Y-62325248D02*
X108901612Y-63835248D01*
X105631612Y-63835248D02*
X115871612Y-63835248D01*
%TO.C,R3*%
X104505421Y-93132172D02*
X104505421Y-97872172D01*
X116645421Y-97872172D02*
X116645421Y-93132172D01*
X116755421Y-95502172D02*
X116645421Y-95502172D01*
X104395421Y-95502172D02*
X104505421Y-95502172D01*
X116645421Y-93132172D02*
X104505421Y-93132172D01*
X104505421Y-97872172D02*
X116645421Y-97872172D01*
%TO.C,Q2*%
X84073139Y-66915363D02*
X94313139Y-66915363D01*
X84073139Y-63784363D02*
X94313139Y-63784363D01*
X84073139Y-62274363D02*
X84073139Y-66915363D01*
X94313139Y-62274363D02*
X94313139Y-66915363D01*
X87343139Y-62274363D02*
X87343139Y-63784363D01*
X91044139Y-62274363D02*
X91044139Y-63784363D01*
X84073139Y-62274363D02*
X94313139Y-62274363D01*
%TD*%
M02*
